<svg width="58" height="48" viewBox="0 0 58 48" fill="none" xmlns="http://www.w3.org/2000/svg">
<circle cx="13.143" cy="34.1884" r="2.62835" fill="black"/>
<circle cx="13.143" cy="39.4482" r="2.62835" fill="black"/>
<circle cx="18.4028" cy="28.9282" r="2.62835" fill="black"/>
<circle cx="18.4028" cy="34.1884" r="2.62835" fill="black"/>
<circle cx="18.4028" cy="39.4482" r="2.62835" fill="black"/>
<circle cx="18.4028" cy="44.7118" r="2.62835" fill="black"/>
<circle cx="23.6547" cy="28.9282" r="2.62835" fill="black"/>
<circle cx="23.6547" cy="34.1884" r="2.62835" fill="black"/>
<circle cx="23.6547" cy="39.4482" r="2.62835" fill="black"/>
<circle cx="23.6547" cy="44.7118" r="2.62835" fill="black"/>
<circle cx="28.9174" cy="34.1884" r="2.62835" fill="black"/>
<circle cx="28.9174" cy="39.4482" r="2.62835" fill="black"/>
<circle cx="28.9174" cy="44.7118" r="2.62835" fill="black"/>
<circle cx="34.1694" cy="28.9282" r="2.62835" fill="black"/>
<circle cx="34.1694" cy="34.1884" r="2.62835" fill="black"/>
<circle cx="34.1694" cy="39.4482" r="2.62835" fill="black"/>
<circle cx="34.1694" cy="44.7118" r="2.62835" fill="black"/>
<circle cx="39.4311" cy="28.9282" r="2.62835" fill="black"/>
<circle cx="39.4311" cy="34.1884" r="2.62835" fill="black"/>
<circle cx="39.4311" cy="39.4482" r="2.62835" fill="black"/>
<circle cx="39.4321" cy="44.7118" r="2.62835" fill="black"/>
<circle cx="44.684" cy="23.6684" r="2.62835" fill="black"/>
<circle cx="44.684" cy="28.9282" r="2.62835" fill="black"/>
<circle cx="44.684" cy="34.1884" r="2.62835" fill="black"/>
<circle cx="44.684" cy="39.4482" r="2.62835" fill="black"/>
<circle cx="44.684" cy="44.7118" r="2.62835" fill="black"/>
<circle cx="49.9428" cy="23.6684" r="2.62835" fill="black"/>
<circle cx="49.9428" cy="28.9282" r="2.62835" fill="black"/>
<circle cx="49.9428" cy="34.1884" r="2.62835" fill="black"/>
<circle cx="49.9428" cy="39.4482" r="2.62835" fill="black"/>
<circle cx="49.9428" cy="44.7118" r="2.62835" fill="black"/>
<circle cx="55.1977" cy="28.9282" r="2.62835" fill="black"/>
<circle cx="55.1977" cy="34.1884" r="2.62835" fill="black"/>
<circle cx="55.1977" cy="39.4482" r="2.62835" fill="black"/>
<circle cx="13.1381" cy="7.88812" r="2.62835" fill="black"/>
<circle cx="2.62835" cy="13.1484" r="2.62835" fill="black"/>
<circle cx="7.88031" cy="7.8847" r="2.62835" fill="black"/>
<circle cx="7.88031" cy="13.1484" r="2.62835" fill="black"/>
<circle cx="7.88031" cy="18.4081" r="2.62835" fill="black"/>
<circle cx="13.142" cy="13.1484" r="2.62835" fill="black"/>
<circle cx="13.142" cy="18.4081" r="2.62835" fill="black"/>
<circle cx="18.395" cy="13.1484" r="2.62835" fill="black"/>
<circle cx="18.395" cy="18.4081" r="2.62835" fill="black"/>
<circle cx="23.6567" cy="7.8847" r="2.62835" fill="black"/>
<circle cx="23.6567" cy="13.1484" r="2.62835" fill="black"/>
<circle cx="23.6567" cy="18.4081" r="2.62835" fill="black"/>
<circle cx="28.9096" cy="2.62835" r="2.62835" fill="black"/>
<circle cx="28.9096" cy="7.8847" r="2.62835" fill="black"/>
<circle cx="28.9096" cy="13.1484" r="2.62835" fill="black"/>
<circle cx="28.9096" cy="18.4081" r="2.62835" fill="black"/>
<circle cx="34.1674" cy="2.62835" r="2.62835" fill="black"/>
<circle cx="34.1674" cy="7.8847" r="2.62835" fill="black"/>
<circle cx="34.1674" cy="13.1484" r="2.62835" fill="black"/>
<circle cx="34.1674" cy="18.4081" r="2.62835" fill="black"/>
<circle cx="39.4233" cy="7.8847" r="2.62835" fill="black"/>
<circle cx="39.4233" cy="13.1484" r="2.62835" fill="black"/>
</svg>
