<svg width="45" height="45" viewBox="0 0 45 45" fill="none" xmlns="http://www.w3.org/2000/svg">
<circle cx="12.5" cy="32.5" r="2.5" fill="black"/>
<circle cx="2.5" cy="37.4995" r="2.5" fill="black"/>
<circle cx="12.5" cy="42.5005" r="2.5" fill="black"/>
<circle cx="22.5" cy="37.4995" r="2.5" fill="black"/>
<circle cx="32.5" cy="32.5" r="2.5" fill="black"/>
<circle cx="32.5" cy="42.5005" r="2.5" fill="black"/>
<circle cx="42.5" cy="37.4995" r="2.5" fill="black"/>
<circle cx="37.5" cy="22.4995" r="2.5" fill="black"/>
<circle cx="32.5" cy="22.4995" r="2.5" fill="black"/>
<circle cx="27.5" cy="22.4995" r="2.5" fill="black"/>
<circle cx="22.5" cy="22.4995" r="2.5" fill="black"/>
<circle cx="17.5" cy="22.4995" r="2.5" fill="black"/>
<circle cx="12.5" cy="22.4995" r="2.5" fill="black"/>
<circle cx="2.5" cy="17.5" r="2.5" fill="black"/>
<circle cx="7.5" cy="17.5" r="2.5" fill="black"/>
<circle cx="12.5" cy="17.5" r="2.5" fill="black"/>
<circle cx="17.5" cy="17.5" r="2.5" fill="black"/>
<circle cx="22.5" cy="17.5" r="2.5" fill="black"/>
<circle cx="27.5" cy="17.5" r="2.5" fill="black"/>
<circle cx="32.5" cy="17.5" r="2.5" fill="black"/>
<circle cx="37.5" cy="17.5" r="2.5" fill="black"/>
<circle cx="42.5" cy="17.5" r="2.5" fill="black"/>
<circle cx="42.5" cy="12.5005" r="2.5" fill="black"/>
<circle cx="37.5" cy="12.5005" r="2.5" fill="black"/>
<circle cx="32.5" cy="12.5005" r="2.5" fill="black"/>
<circle cx="27.5" cy="12.5005" r="2.5" fill="black"/>
<circle cx="22.5" cy="12.5005" r="2.5" fill="black"/>
<circle cx="17.5" cy="12.5005" r="2.5" fill="black"/>
<circle cx="12.5" cy="12.5005" r="2.5" fill="black"/>
<circle cx="7.5" cy="12.5005" r="2.5" fill="black"/>
<circle cx="2.5" cy="12.5005" r="2.5" fill="black"/>
<circle cx="7.5" cy="7.49951" r="2.5" fill="black"/>
<circle cx="12.5" cy="7.49951" r="2.5" fill="black"/>
<circle cx="22.5" cy="7.49951" r="2.5" fill="black"/>
<circle cx="27.5" cy="7.49951" r="2.5" fill="black"/>
<circle cx="32.5" cy="7.49951" r="2.5" fill="black"/>
<circle cx="37.5" cy="7.49951" r="2.5" fill="black"/>
<circle cx="42.5" cy="7.49951" r="2.5" fill="black"/>
<circle cx="37.5" cy="2.5" r="2.5" fill="black"/>
<circle cx="32.5" cy="2.5" r="2.5" fill="black"/>
</svg>
