<svg width="57" height="42" viewBox="0 0 57 42" fill="none" xmlns="http://www.w3.org/2000/svg">
<ellipse cx="28.4991" cy="12.9557" rx="2.59091" ry="2.59091" fill="black"/>
<ellipse cx="23.3184" cy="18.1368" rx="2.59091" ry="2.59091" fill="black"/>
<ellipse cx="28.4991" cy="23.318" rx="2.59091" ry="2.59091" fill="black"/>
<ellipse cx="33.6827" cy="18.1368" rx="2.59091" ry="2.59091" fill="black"/>
<ellipse cx="38.8643" cy="12.9557" rx="2.59091" ry="2.59091" fill="black"/>
<ellipse cx="44.045" cy="18.1368" rx="2.59091" ry="2.59091" fill="black"/>
<ellipse cx="49.2267" cy="12.9557" rx="2.59091" ry="2.59091" fill="black"/>
<ellipse cx="54.4093" cy="18.1368" rx="2.59091" ry="2.59091" fill="black"/>
<ellipse cx="49.2267" cy="23.318" rx="2.59091" ry="2.59091" fill="black"/>
<ellipse cx="38.8643" cy="23.318" rx="2.59091" ry="2.59091" fill="black"/>
<ellipse cx="28.4991" cy="23.318" rx="2.59091" ry="2.59091" fill="black"/>
<ellipse cx="23.3184" cy="2.59091" rx="2.59091" ry="2.59091" fill="black"/>
<ellipse cx="18.1368" cy="2.59091" rx="2.59091" ry="2.59091" fill="black"/>
<ellipse cx="12.9552" cy="2.59091" rx="2.59091" ry="2.59091" fill="black"/>
<ellipse cx="12.9552" cy="7.77304" rx="2.59091" ry="2.59091" fill="black"/>
<ellipse cx="18.1368" cy="7.77304" rx="2.59091" ry="2.59091" fill="black"/>
<ellipse cx="7.77353" cy="7.77304" rx="2.59091" ry="2.59091" fill="black"/>
<ellipse cx="2.59091" cy="12.9557" rx="2.59091" ry="2.59091" fill="black"/>
<ellipse cx="7.77353" cy="12.9557" rx="2.59091" ry="2.59091" fill="black"/>
<ellipse cx="12.9552" cy="12.9557" rx="2.59091" ry="2.59091" fill="black"/>
<ellipse cx="2.59091" cy="18.1368" rx="2.59091" ry="2.59091" fill="black"/>
<ellipse cx="7.77353" cy="18.1368" rx="2.59091" ry="2.59091" fill="black"/>
<ellipse cx="7.77353" cy="23.318" rx="2.59091" ry="2.59091" fill="black"/>
<ellipse cx="7.77353" cy="28.4991" rx="2.59091" ry="2.59091" fill="black"/>
<ellipse cx="7.77353" cy="33.6827" rx="2.59091" ry="2.59091" fill="black"/>
<ellipse cx="12.9552" cy="18.1368" rx="2.59091" ry="2.59091" fill="black"/>
<ellipse cx="2.59091" cy="23.318" rx="2.59091" ry="2.59091" fill="black"/>
<ellipse cx="12.9552" cy="23.318" rx="2.59091" ry="2.59091" fill="black"/>
<ellipse cx="2.59091" cy="28.4991" rx="2.59091" ry="2.59091" fill="black"/>
<ellipse cx="12.9552" cy="28.4991" rx="2.59091" ry="2.59091" fill="black"/>
<ellipse cx="18.1368" cy="28.4991" rx="2.59091" ry="2.59091" fill="black"/>
<ellipse cx="12.9552" cy="33.6827" rx="2.59091" ry="2.59091" fill="black"/>
<ellipse cx="18.1368" cy="33.6827" rx="2.59091" ry="2.59091" fill="black"/>
<ellipse cx="23.3184" cy="33.6827" rx="2.59091" ry="2.59091" fill="black"/>
<ellipse cx="28.4991" cy="33.6827" rx="2.59091" ry="2.59091" fill="black"/>
<ellipse cx="33.6827" cy="33.6827" rx="2.59091" ry="2.59091" fill="black"/>
<ellipse cx="12.9552" cy="38.8639" rx="2.59091" ry="2.59091" fill="black"/>
<ellipse cx="18.1368" cy="38.8639" rx="2.59091" ry="2.59091" fill="black"/>
<ellipse cx="23.3184" cy="38.8639" rx="2.59091" ry="2.59091" fill="black"/>
<ellipse cx="28.4991" cy="38.8639" rx="2.59091" ry="2.59091" fill="black"/>
</svg>
