<svg width="57" height="42" viewBox="0 0 57 42" fill="none" xmlns="http://www.w3.org/2000/svg">
<circle cx="23.3184" cy="2.59091" r="2.59091" fill="black"/>
<circle cx="38.8634" cy="7.77255" r="2.59091" fill="black"/>
<circle cx="7.77255" cy="7.77255" r="2.59091" fill="black"/>
<circle cx="2.59091" cy="23.318" r="2.59091" fill="black"/>
<circle cx="7.77255" cy="38.8639" r="2.59091" fill="black"/>
<circle cx="23.3184" cy="33.6817" r="2.59091" fill="black"/>
<circle cx="28.5001" cy="28.5001" r="2.59091" fill="black"/>
<circle cx="38.8634" cy="28.5001" r="2.59091" fill="black"/>
<circle cx="49.2276" cy="28.5001" r="2.59091" fill="black"/>
<circle cx="54.4093" cy="33.6817" r="2.59091" fill="black"/>
<circle cx="44.045" cy="33.6817" r="2.59091" fill="black"/>
<circle cx="33.6817" cy="33.6817" r="2.59091" fill="black"/>
<circle cx="28.5001" cy="38.8639" r="2.59091" fill="black"/>
<circle cx="38.8634" cy="38.8639" r="2.59091" fill="black"/>
<circle cx="49.2276" cy="38.8639" r="2.59091" fill="black"/>
<circle cx="12.9542" cy="28.5001" r="2.59091" fill="black"/>
<circle cx="12.9542" cy="23.318" r="2.59091" fill="black"/>
<circle cx="12.9542" cy="18.1363" r="2.59091" fill="black"/>
<circle cx="18.1368" cy="18.1363" r="2.59091" fill="black"/>
<circle cx="18.1368" cy="12.9547" r="2.59091" fill="black"/>
<circle cx="23.3184" cy="12.9547" r="2.59091" fill="black"/>
<circle cx="28.5001" cy="12.9547" r="2.59091" fill="black"/>
<circle cx="23.3184" cy="18.1363" r="2.59091" fill="black"/>
<circle cx="28.5001" cy="18.1363" r="2.59091" fill="black"/>
<circle cx="33.6817" cy="18.1363" r="2.59091" fill="black"/>
<circle cx="18.1368" cy="23.318" r="2.59091" fill="black"/>
<circle cx="12.9542" cy="23.318" r="2.59091" fill="black"/>
<circle cx="12.9542" cy="28.5001" r="2.59091" fill="black"/>
</svg>
