<svg width="40" height="51" viewBox="0 0 40 51" fill="none" xmlns="http://www.w3.org/2000/svg">
<ellipse cx="20" cy="48" rx="3" ry="3" fill="black"/>
<ellipse cx="14" cy="48" rx="3" ry="3" fill="black"/>
<ellipse cx="8" cy="48" rx="3" ry="3" fill="black"/>
<ellipse cx="4" cy="42" rx="3" ry="3" fill="black"/>
<ellipse cx="10" cy="42" rx="3" ry="3" fill="black"/>
<ellipse cx="16" cy="42" rx="3" ry="3" fill="black"/>
<ellipse cx="9" cy="36" rx="3" ry="3" fill="black"/>
<ellipse cx="3" cy="36" rx="3" ry="3" fill="black"/>
<ellipse cx="3" cy="30" rx="3" ry="3" fill="black"/>
<ellipse cx="9" cy="30" rx="3" ry="3" fill="black"/>
<ellipse cx="9" cy="24" rx="3" ry="3" fill="black"/>
<ellipse cx="15" cy="26" rx="3" ry="3" fill="black"/>
<ellipse cx="15" cy="21" rx="3" ry="3" fill="black"/>
<ellipse cx="21" cy="21" rx="3" ry="3" fill="black"/>
<ellipse cx="27" cy="21" rx="3" ry="3" fill="black"/>
<ellipse cx="25" cy="27" rx="3" ry="3" fill="black"/>
<ellipse cx="31" cy="27" rx="3" ry="3" fill="black"/>
<ellipse cx="25" cy="33" rx="3" ry="3" fill="black"/>
<ellipse cx="31" cy="33" rx="3" ry="3" fill="black"/>
<ellipse cx="31" cy="39" rx="3" ry="3" fill="black"/>
<ellipse cx="31" cy="45" rx="3" ry="3" fill="black"/>
<ellipse cx="37" cy="42" rx="3" ry="3" fill="black"/>
<ellipse cx="37" cy="36" rx="3" ry="3" fill="black"/>
<ellipse cx="37" cy="30" rx="3" ry="3" fill="black"/>
<ellipse cx="25" cy="15" rx="3" ry="3" fill="black"/>
<ellipse cx="19" cy="15" rx="3" ry="3" fill="black"/>
<ellipse cx="13" cy="15" rx="3" ry="3" fill="black"/>
<ellipse cx="19" cy="9" rx="3" ry="3" fill="black"/>
<ellipse cx="25" cy="9" rx="3" ry="3" fill="black"/>
<ellipse cx="25" cy="3" rx="3" ry="3" fill="black"/>
</svg>
