<svg width="25" height="30" viewBox="0 0 25 30" fill="none" xmlns="http://www.w3.org/2000/svg">
<circle cx="12.4329" cy="2.56672" r="1.77619" fill="#1C1D1F"/>
<circle cx="8.88117" cy="2.56672" r="1.77619" fill="#1C1D1F"/>
<circle cx="15.9857" cy="2.56672" r="1.77619" fill="#1C1D1F"/>
<circle cx="5.32844" cy="9.67121" r="1.77619" fill="#1C1D1F"/>
<circle cx="1.77619" cy="9.67121" r="1.77619" fill="#1C1D1F"/>
<circle cx="8.88117" cy="9.67121" r="1.77619" fill="#1C1D1F"/>
<circle cx="5.32844" cy="13.2239" r="1.77619" fill="#1C1D1F"/>
<circle cx="1.77619" cy="13.2239" r="1.77619" fill="#1C1D1F"/>
<circle cx="23.0906" cy="13.2239" r="1.77619" fill="#1C1D1F"/>
<circle cx="19.5384" cy="13.2239" r="1.77619" fill="#1C1D1F"/>
<circle cx="8.88117" cy="20.3289" r="1.77619" fill="#1C1D1F"/>
<circle cx="5.32844" cy="20.3289" r="1.77619" fill="#1C1D1F"/>
<circle cx="5.32844" cy="16.7762" r="1.77619" fill="#1C1D1F"/>
<circle cx="1.77619" cy="16.7762" r="1.77619" fill="#1C1D1F"/>
<circle cx="8.88117" cy="16.7762" r="1.77619" fill="#1C1D1F"/>
<circle cx="19.5384" cy="16.7762" r="1.77619" fill="#1C1D1F"/>
<circle cx="15.9857" cy="16.7762" r="1.77619" fill="#1C1D1F"/>
<circle cx="23.0906" cy="16.7762" r="1.77619" fill="#1C1D1F"/>
<circle cx="15.9857" cy="20.3289" r="1.77619" fill="#1C1D1F"/>
<circle cx="12.4329" cy="20.3289" r="1.77619" fill="#1C1D1F"/>
<circle cx="19.5384" cy="20.3289" r="1.77619" fill="#1C1D1F"/>
<circle cx="12.4329" cy="23.8807" r="1.77619" fill="#1C1D1F"/>
<circle cx="12.4329" cy="27.4334" r="1.77619" fill="#1C1D1F"/>
<circle cx="8.88117" cy="23.8807" r="1.77619" fill="#1C1D1F"/>
<circle cx="15.9857" cy="23.8807" r="1.77619" fill="#1C1D1F"/>
<circle cx="19.5384" cy="9.67121" r="1.77619" fill="#1C1D1F"/>
<circle cx="15.9857" cy="9.67121" r="1.77619" fill="#1C1D1F"/>
<circle cx="23.0906" cy="9.67121" r="1.77619" fill="#1C1D1F"/>
<circle cx="12.4329" cy="6.11945" r="1.77619" fill="#1C1D1F"/>
<circle cx="8.88117" cy="6.11945" r="1.77619" fill="#1C1D1F"/>
<circle cx="5.32844" cy="6.11945" r="1.77619" fill="#1C1D1F"/>
<circle cx="15.9857" cy="6.11945" r="1.77619" fill="#1C1D1F"/>
<circle cx="19.5384" cy="6.11945" r="1.77619" fill="#1C1D1F"/>
</svg>
