<svg width="57" height="48" viewBox="0 0 57 48" fill="none" xmlns="http://www.w3.org/2000/svg">
<ellipse cx="25.4676" cy="28.4993" rx="1.81915" ry="1.81915" fill="black"/>
<ellipse cx="25.4676" cy="32.7444" rx="1.81915" ry="1.81915" fill="black"/>
<ellipse cx="33.9568" cy="32.7444" rx="1.81915" ry="1.81915" fill="black"/>
<ellipse cx="33.9568" cy="28.4993" rx="1.81915" ry="1.81915" fill="black"/>
<ellipse cx="33.9568" cy="36.9891" rx="1.81915" ry="1.81915" fill="black"/>
<ellipse cx="33.9568" cy="41.2337" rx="1.81915" ry="1.81915" fill="black"/>
<ellipse cx="33.9568" cy="45.4783" rx="1.81915" ry="1.81915" fill="black"/>
<ellipse cx="42.4471" cy="32.7444" rx="1.81915" ry="1.81915" fill="black"/>
<ellipse cx="42.4471" cy="28.4993" rx="1.81915" ry="1.81915" fill="black"/>
<ellipse cx="42.4471" cy="24.2552" rx="1.81915" ry="1.81915" fill="black"/>
<ellipse cx="42.4471" cy="36.9891" rx="1.81915" ry="1.81915" fill="black"/>
<ellipse cx="42.4471" cy="41.2337" rx="1.81915" ry="1.81915" fill="black"/>
<ellipse cx="42.4471" cy="45.4783" rx="1.81915" ry="1.81915" fill="black"/>
<ellipse cx="50.9363" cy="32.7444" rx="1.81915" ry="1.81915" fill="black"/>
<ellipse cx="55.1815" cy="32.7444" rx="1.81915" ry="1.81915" fill="black"/>
<ellipse cx="50.9363" cy="28.4993" rx="1.81915" ry="1.81915" fill="black"/>
<ellipse cx="50.9363" cy="36.9891" rx="1.81915" ry="1.81915" fill="black"/>
<ellipse cx="55.1815" cy="36.9891" rx="1.81915" ry="1.81915" fill="black"/>
<ellipse cx="50.9363" cy="41.2337" rx="1.81915" ry="1.81915" fill="black"/>
<ellipse cx="55.1815" cy="41.2337" rx="1.81915" ry="1.81915" fill="black"/>
<ellipse cx="50.9363" cy="45.4783" rx="1.81915" ry="1.81915" fill="black"/>
<ellipse cx="25.4676" cy="36.9891" rx="1.81915" ry="1.81915" fill="black"/>
<ellipse cx="16.9783" cy="36.9891" rx="1.81915" ry="1.81915" fill="black"/>
<ellipse cx="16.9783" cy="32.7444" rx="1.81915" ry="1.81915" fill="black"/>
<ellipse cx="16.9783" cy="41.2337" rx="1.81915" ry="1.81915" fill="black"/>
<ellipse cx="16.9783" cy="45.4783" rx="1.81915" ry="1.81915" fill="black"/>
<ellipse cx="25.4676" cy="41.2337" rx="1.81915" ry="1.81915" fill="black"/>
<ellipse cx="25.4676" cy="45.4783" rx="1.81915" ry="1.81915" fill="black"/>
<ellipse cx="21.2234" cy="28.4993" rx="1.81915" ry="1.81915" fill="black"/>
<ellipse cx="21.2234" cy="32.7444" rx="1.81915" ry="1.81915" fill="black"/>
<ellipse cx="29.7127" cy="32.7444" rx="1.81915" ry="1.81915" fill="black"/>
<ellipse cx="29.7127" cy="36.9891" rx="1.81915" ry="1.81915" fill="black"/>
<ellipse cx="29.7127" cy="41.2337" rx="1.81915" ry="1.81915" fill="black"/>
<ellipse cx="29.7127" cy="45.4783" rx="1.81915" ry="1.81915" fill="black"/>
<ellipse cx="38.202" cy="32.7444" rx="1.81915" ry="1.81915" fill="black"/>
<ellipse cx="38.202" cy="28.4993" rx="1.81915" ry="1.81915" fill="black"/>
<ellipse cx="38.202" cy="24.2552" rx="1.81915" ry="1.81915" fill="black"/>
<ellipse cx="38.202" cy="36.9891" rx="1.81915" ry="1.81915" fill="black"/>
<ellipse cx="38.202" cy="41.2337" rx="1.81915" ry="1.81915" fill="black"/>
<ellipse cx="38.202" cy="45.4783" rx="1.81915" ry="1.81915" fill="black"/>
<ellipse cx="46.6912" cy="32.7444" rx="1.81915" ry="1.81915" fill="black"/>
<ellipse cx="46.6912" cy="28.4993" rx="1.81915" ry="1.81915" fill="black"/>
<ellipse cx="46.6912" cy="24.2552" rx="1.81915" ry="1.81915" fill="black"/>
<ellipse cx="46.6912" cy="36.9891" rx="1.81915" ry="1.81915" fill="black"/>
<ellipse cx="46.6912" cy="41.2337" rx="1.81915" ry="1.81915" fill="black"/>
<ellipse cx="46.6912" cy="45.4783" rx="1.81915" ry="1.81915" fill="black"/>
<ellipse cx="21.2234" cy="36.9891" rx="1.81915" ry="1.81915" fill="black"/>
<ellipse cx="12.7342" cy="36.9891" rx="1.81915" ry="1.81915" fill="black"/>
<ellipse cx="12.7342" cy="41.2337" rx="1.81915" ry="1.81915" fill="black"/>
<ellipse cx="21.2234" cy="41.2337" rx="1.81915" ry="1.81915" fill="black"/>
<ellipse cx="21.2234" cy="45.4783" rx="1.81915" ry="1.81915" fill="black"/>
<ellipse cx="19.4041" cy="1.81915" rx="1.81915" ry="1.81915" fill="black"/>
<ellipse cx="32.1385" cy="6.67022" rx="1.81915" ry="1.81915" fill="black"/>
<ellipse cx="1.81915" cy="19.4041" rx="1.81915" ry="1.81915" fill="black"/>
<ellipse cx="6.06329" cy="6.67022" rx="1.81915" ry="1.81915" fill="black"/>
<ellipse cx="15.16" cy="10.9149" rx="1.81915" ry="1.81915" fill="black"/>
<ellipse cx="15.16" cy="15.16" rx="1.81915" ry="1.81915" fill="black"/>
<ellipse cx="10.9149" cy="15.16" rx="1.81915" ry="1.81915" fill="black"/>
<ellipse cx="27.8934" cy="15.16" rx="1.81915" ry="1.81915" fill="black"/>
<ellipse cx="10.9149" cy="19.4041" rx="1.81915" ry="1.81915" fill="black"/>
<ellipse cx="27.8934" cy="19.4041" rx="1.81915" ry="1.81915" fill="black"/>
<ellipse cx="15.16" cy="19.4041" rx="1.81915" ry="1.81915" fill="black"/>
<ellipse cx="19.4041" cy="10.9149" rx="1.81915" ry="1.81915" fill="black"/>
<ellipse cx="19.4041" cy="15.16" rx="1.81915" ry="1.81915" fill="black"/>
<ellipse cx="19.4041" cy="19.4041" rx="1.81915" ry="1.81915" fill="black"/>
<ellipse cx="23.6492" cy="10.9149" rx="1.81915" ry="1.81915" fill="black"/>
<ellipse cx="23.6492" cy="15.16" rx="1.81915" ry="1.81915" fill="black"/>
<ellipse cx="23.6492" cy="19.4041" rx="1.81915" ry="1.81915" fill="black"/>
</svg>
