<svg width="58" height="43" viewBox="0 0 58 43" fill="none" xmlns="http://www.w3.org/2000/svg">
<circle cx="13.1381" cy="2.62835" r="2.62835" fill="black"/>
<circle cx="18.3911" cy="2.62835" r="2.62835" fill="black"/>
<circle cx="23.6489" cy="2.62835" r="2.62835" fill="black"/>
<circle cx="7.88977" cy="7.88977" r="2.63" fill="black"/>
<circle cx="2.63" cy="13.15" r="2.63" fill="black"/>
<circle cx="2.63" cy="18.4098" r="2.63" fill="black"/>
<circle cx="2.63" cy="23.67" r="2.63" fill="black"/>
<circle cx="2.63" cy="28.9298" r="2.63" fill="black"/>
<circle cx="13.1381" cy="7.88812" r="2.62835" fill="black"/>
<circle cx="7.88812" cy="13.1484" r="2.62835" fill="black"/>
<circle cx="7.88812" cy="18.4081" r="2.62835" fill="black"/>
<circle cx="7.88812" cy="23.6684" r="2.62835" fill="black"/>
<circle cx="7.88812" cy="28.9282" r="2.62835" fill="black"/>
<circle cx="18.3881" cy="7.88812" r="2.62835" fill="black"/>
<circle cx="13.1381" cy="13.1484" r="2.62835" fill="black"/>
<circle cx="13.1381" cy="18.4081" r="2.62835" fill="black"/>
<circle cx="13.1381" cy="23.6684" r="2.62835" fill="black"/>
<circle cx="13.1381" cy="28.9282" r="2.62835" fill="black"/>
<circle cx="18.3979" cy="28.9282" r="2.62835" fill="black"/>
<circle cx="7.88977" cy="34.1901" r="2.63" fill="black"/>
<circle cx="13.1381" cy="34.1884" r="2.62835" fill="black"/>
<circle cx="18.3979" cy="34.1884" r="2.62835" fill="black"/>
<circle cx="23.6586" cy="34.1884" r="2.62835" fill="black"/>
<circle cx="28.9184" cy="34.1884" r="2.62835" fill="black"/>
<circle cx="13.1381" cy="39.4482" r="2.62835" fill="black"/>
<circle cx="18.3979" cy="39.4482" r="2.62835" fill="black"/>
<circle cx="23.6586" cy="39.4482" r="2.62835" fill="black"/>
<circle cx="28.9184" cy="39.4482" r="2.62835" fill="black"/>
<circle cx="34.1782" cy="34.1884" r="2.62835" fill="black"/>
<circle cx="23.6603" cy="18.4098" r="2.63" fill="black"/>
<circle cx="28.9184" cy="18.4081" r="2.62835" fill="black"/>
<circle cx="28.9184" cy="13.1484" r="2.62835" fill="black"/>
<circle cx="34.1782" cy="18.4081" r="2.62835" fill="black"/>
<circle cx="39.4379" cy="18.4081" r="2.62835" fill="black"/>
<circle cx="44.6987" cy="18.4081" r="2.62835" fill="black"/>
<circle cx="49.9584" cy="18.4081" r="2.62835" fill="black"/>
<circle cx="28.9184" cy="23.6684" r="2.62835" fill="black"/>
<circle cx="34.1782" cy="23.6684" r="2.62835" fill="black"/>
<circle cx="39.4379" cy="23.6684" r="2.62835" fill="black"/>
<circle cx="44.6987" cy="23.6684" r="2.62835" fill="black"/>
<circle cx="49.9584" cy="23.6684" r="2.62835" fill="black"/>
<circle cx="55.2182" cy="18.4081" r="2.62835" fill="black"/>
<circle cx="39.4379" cy="13.1484" r="2.62835" fill="black"/>
<circle cx="44.6987" cy="13.1484" r="2.62835" fill="black"/>
<circle cx="49.9584" cy="13.1484" r="2.62835" fill="black"/>
<circle cx="44.6987" cy="7.88812" r="2.62835" fill="black"/>
<circle cx="49.9584" cy="7.88812" r="2.62835" fill="black"/>
<circle cx="55.2182" cy="13.1484" r="2.62835" fill="black"/>
</svg>
