<svg width="47" height="47" viewBox="0 0 47 47" fill="none" xmlns="http://www.w3.org/2000/svg">
<circle cx="28.7224" cy="18.2776" r="2.61111" fill="black"/>
<circle cx="33.9441" cy="13.0554" r="2.61111" fill="black"/>
<circle cx="33.9441" cy="7.83328" r="2.61111" fill="black"/>
<circle cx="39.1668" cy="13.0554" r="2.61111" fill="black"/>
<circle cx="23.4998" cy="13.0554" r="2.61111" fill="black"/>
<circle cx="23.4998" cy="7.83328" r="2.61111" fill="black"/>
<circle cx="23.4998" cy="2.61111" r="2.61111" fill="black"/>
<circle cx="13.0554" cy="7.83328" r="2.61111" fill="black"/>
<circle cx="13.0554" cy="13.0554" r="2.61111" fill="black"/>
<circle cx="7.83377" cy="13.0554" r="2.61111" fill="black"/>
<circle cx="2.61111" cy="23.4998" r="2.61111" fill="black"/>
<circle cx="7.83377" cy="23.4998" r="2.61111" fill="black"/>
<circle cx="13.0554" cy="23.4998" r="2.61111" fill="black"/>
<circle cx="18.2781" cy="18.2776" r="2.61111" fill="black"/>
<circle cx="23.4998" cy="23.4998" r="2.61111" fill="black"/>
<circle cx="18.2781" cy="28.7224" r="2.61111" fill="black"/>
<circle cx="28.7224" cy="28.7224" r="2.61111" fill="black"/>
<circle cx="33.9441" cy="23.4998" r="2.61111" fill="black"/>
<circle cx="39.1668" cy="23.4998" r="2.61111" fill="black"/>
<circle cx="44.3885" cy="23.4998" r="2.61111" fill="black"/>
<circle cx="33.9441" cy="33.9446" r="2.61111" fill="black"/>
<circle cx="39.1668" cy="33.9446" r="2.61111" fill="black"/>
<circle cx="33.9441" cy="39.1668" r="2.61111" fill="black"/>
<circle cx="23.4998" cy="33.9446" r="2.61111" fill="black"/>
<circle cx="23.4998" cy="39.1668" r="2.61111" fill="black"/>
<circle cx="23.4998" cy="44.3889" r="2.61111" fill="black"/>
<circle cx="13.0554" cy="33.9446" r="2.61111" fill="black"/>
<circle cx="7.83377" cy="33.9446" r="2.61111" fill="black"/>
<circle cx="13.0554" cy="39.1668" r="2.61111" fill="black"/>
</svg>
