<svg width="49" height="49" viewBox="0 0 49 49" fill="none" xmlns="http://www.w3.org/2000/svg">
<circle cx="24.4894" cy="2.63" r="2.63" fill="black"/>
<circle cx="40.3253" cy="8.66125" r="2.63" fill="black"/>
<circle cx="46.3546" cy="24.4913" r="2.63" fill="black"/>
<circle cx="40.3253" cy="40.3224" r="2.63" fill="black"/>
<circle cx="24.4894" cy="46.3531" r="2.63" fill="black"/>
<circle cx="8.66125" cy="40.3224" r="2.63" fill="black"/>
<circle cx="2.63" cy="24.4913" r="2.63" fill="black"/>
<circle cx="7.90539" cy="8.66125" r="2.63" fill="black"/>
<circle cx="19.2159" cy="13.9381" r="2.63" fill="black"/>
<circle cx="19.2159" cy="19.214" r="2.63" fill="black"/>
<circle cx="13.9347" cy="19.214" r="2.63" fill="black"/>
<circle cx="35.0441" cy="19.214" r="2.63" fill="black"/>
<circle cx="13.9347" cy="24.4913" r="2.63" fill="black"/>
<circle cx="35.0441" cy="24.4913" r="2.63" fill="black"/>
<circle cx="13.9347" cy="29.7687" r="2.63" fill="black"/>
<circle cx="35.0441" cy="29.7687" r="2.63" fill="black"/>
<circle cx="19.2159" cy="24.4913" r="2.63" fill="black"/>
<circle cx="19.2159" cy="29.7687" r="2.63" fill="black"/>
<circle cx="19.2159" cy="35.046" r="2.63" fill="black"/>
<circle cx="24.4894" cy="13.9381" r="2.63" fill="black"/>
<circle cx="24.4894" cy="19.214" r="2.63" fill="black"/>
<circle cx="24.4894" cy="24.4913" r="2.63" fill="black"/>
<circle cx="24.4894" cy="29.7687" r="2.63" fill="black"/>
<circle cx="24.4894" cy="35.046" r="2.63" fill="black"/>
<circle cx="29.7706" cy="13.9381" r="2.63" fill="black"/>
<circle cx="29.7706" cy="19.214" r="2.63" fill="black"/>
<circle cx="29.7706" cy="24.4913" r="2.63" fill="black"/>
<circle cx="29.7706" cy="29.7687" r="2.63" fill="black"/>
<circle cx="29.7706" cy="35.046" r="2.63" fill="black"/>
</svg>
