<svg width="266" height="172" viewBox="0 0 266 172" fill="none" xmlns="http://www.w3.org/2000/svg">
<line y1="85" x2="266" y2="85" stroke="#1C1D1F" stroke-width="2"/>
<line x1="50" y1="99" x2="214" y2="99" stroke="#7A7A7A" stroke-width="2"/>
<line x1="81" y1="115" x2="182" y2="115" stroke="#7A7A7A" stroke-width="2"/>
<line x1="112" y1="130" x2="153" y2="130" stroke="#7A7A7A" stroke-width="2"/>
<mask id="path-5-inside-1_867_6292" fill="white">
<path d="M196 86C196 77.7267 194.37 69.5345 191.204 61.8909C188.038 54.2474 183.398 47.3024 177.548 41.4523C171.698 35.6022 164.753 30.9616 157.109 27.7956C149.466 24.6295 141.273 23 133 23C124.727 23 116.534 24.6295 108.891 27.7956C101.247 30.9616 94.3024 35.6022 88.4523 41.4523C82.6022 47.3024 77.9616 54.2474 74.7956 61.8909C71.6295 69.5345 70 77.7267 70 86L133 86H196Z"/>
</mask>
<path d="M196 86C196 77.7267 194.37 69.5345 191.204 61.8909C188.038 54.2474 183.398 47.3024 177.548 41.4523C171.698 35.6022 164.753 30.9616 157.109 27.7956C149.466 24.6295 141.273 23 133 23C124.727 23 116.534 24.6295 108.891 27.7956C101.247 30.9616 94.3024 35.6022 88.4523 41.4523C82.6022 47.3024 77.9616 54.2474 74.7956 61.8909C71.6295 69.5345 70 77.7267 70 86L133 86H196Z" stroke="#1C1D1F" stroke-width="4" mask="url(#path-5-inside-1_867_6292)"/>
<mask id="path-6-inside-2_867_6292" fill="white">
<path d="M219 86C219 74.7063 216.776 63.5232 212.454 53.0892C208.132 42.6552 201.797 33.1747 193.811 25.1888C185.825 17.203 176.345 10.8683 165.911 6.54636C155.477 2.22445 144.294 -4.93662e-07 133 0C121.706 4.93663e-07 110.523 2.22446 100.089 6.54636C89.6552 10.8683 80.1747 17.203 72.1888 25.1888C64.203 33.1747 57.8683 42.6552 53.5464 53.0892C49.2245 63.5232 47 74.7063 47 86L133 86H219Z"/>
</mask>
<path d="M219 86C219 74.7063 216.776 63.5232 212.454 53.0892C208.132 42.6552 201.797 33.1747 193.811 25.1888C185.825 17.203 176.345 10.8683 165.911 6.54636C155.477 2.22445 144.294 -4.93662e-07 133 0C121.706 4.93663e-07 110.523 2.22446 100.089 6.54636C89.6552 10.8683 80.1747 17.203 72.1888 25.1888C64.203 33.1747 57.8683 42.6552 53.5464 53.0892C49.2245 63.5232 47 74.7063 47 86L133 86H219Z" stroke="#1C1D1F" stroke-width="4" mask="url(#path-6-inside-2_867_6292)"/>
<path d="M131.293 74.7071C131.683 75.0976 132.317 75.0976 132.707 74.7071L139.071 68.3431C139.462 67.9526 139.462 67.3195 139.071 66.9289C138.681 66.5384 138.047 66.5384 137.657 66.9289L132 72.5858L126.343 66.9289C125.953 66.5384 125.319 66.5384 124.929 66.9289C124.538 67.3195 124.538 67.9526 124.929 68.3431L131.293 74.7071ZM131 45V74H133V45H131Z" fill="#1C1D1F"/>
</svg>
