<svg width="42" height="54" viewBox="0 0 42 54" fill="none" xmlns="http://www.w3.org/2000/svg">
<circle cx="15" cy="51" r="3" fill="black"/>
<circle cx="15" cy="45" r="3" fill="black"/>
<circle cx="21" cy="45" r="3" fill="black"/>
<circle cx="21" cy="39" r="3" fill="black"/>
<circle cx="27" cy="39" r="3" fill="black"/>
<circle cx="15" cy="39" r="3" fill="black"/>
<circle cx="15" cy="33" r="3" fill="black"/>
<circle cx="21" cy="33" r="3" fill="black"/>
<circle cx="27" cy="33" r="3" fill="black"/>
<circle cx="33" cy="33" r="3" fill="black"/>
<circle cx="39" cy="27" r="3" fill="black"/>
<circle cx="33" cy="27" r="3" fill="black"/>
<circle cx="27" cy="27" r="3" fill="black"/>
<circle cx="21" cy="27" r="3" fill="black"/>
<circle cx="15" cy="27" r="3" fill="black"/>
<circle cx="9" cy="27" r="3" fill="black"/>
<circle cx="3" cy="27" r="3" fill="black"/>
<circle cx="9" cy="21" r="3" fill="black"/>
<circle cx="15" cy="21" r="3" fill="black"/>
<circle cx="21" cy="21" r="3" fill="black"/>
<circle cx="27" cy="21" r="3" fill="black"/>
<circle cx="27" cy="15" r="3" fill="black"/>
<circle cx="21" cy="15" r="3" fill="black"/>
<circle cx="15" cy="15" r="3" fill="black"/>
<circle cx="21" cy="9" r="3" fill="black"/>
<circle cx="27" cy="9" r="3" fill="black"/>
<circle cx="27" cy="3" r="3" fill="black"/>
</svg>
