<svg width="58" height="37" viewBox="0 0 58 37" fill="none" xmlns="http://www.w3.org/2000/svg">
<circle cx="7.88324" cy="13.142" r="2.62835" fill="black"/>
<circle cx="7.88324" cy="18.3979" r="2.62835" fill="black"/>
<circle cx="2.62835" cy="18.3979" r="2.62835" fill="black"/>
<circle cx="7.88324" cy="23.6547" r="2.62835" fill="black"/>
<circle cx="2.62835" cy="23.6547" r="2.62835" fill="black"/>
<circle cx="7.88324" cy="28.912" r="2.62835" fill="black"/>
<circle cx="13.143" cy="7.88568" r="2.62835" fill="black"/>
<circle cx="13.143" cy="13.142" r="2.62835" fill="black"/>
<circle cx="13.143" cy="18.3979" r="2.62835" fill="black"/>
<circle cx="13.143" cy="23.6547" r="2.62835" fill="black"/>
<circle cx="13.143" cy="28.912" r="2.62835" fill="black"/>
<circle cx="18.395" cy="7.88568" r="2.62835" fill="black"/>
<circle cx="18.395" cy="13.142" r="2.62835" fill="black"/>
<circle cx="18.395" cy="18.3979" r="2.62835" fill="black"/>
<circle cx="18.395" cy="23.6547" r="2.62835" fill="black"/>
<circle cx="18.395" cy="28.912" r="2.62835" fill="black"/>
<circle cx="23.6577" cy="13.142" r="2.62835" fill="black"/>
<circle cx="23.6577" cy="18.3979" r="2.62835" fill="black"/>
<circle cx="23.6577" cy="23.6547" r="2.62835" fill="black"/>
<circle cx="23.6577" cy="28.912" r="2.62835" fill="black"/>
<circle cx="28.9096" cy="7.88568" r="2.62835" fill="black"/>
<circle cx="28.9096" cy="13.142" r="2.62835" fill="black"/>
<circle cx="28.9096" cy="18.3979" r="2.62835" fill="black"/>
<circle cx="28.9096" cy="23.6547" r="2.62835" fill="black"/>
<circle cx="28.9096" cy="28.912" r="2.62835" fill="black"/>
<circle cx="34.1723" cy="7.88568" r="2.62835" fill="black"/>
<circle cx="34.1723" cy="2.62835" r="2.62835" fill="black"/>
<circle cx="34.1723" cy="13.142" r="2.62835" fill="black"/>
<circle cx="34.1723" cy="18.3979" r="2.62835" fill="black"/>
<circle cx="34.1723" cy="23.6547" r="2.62835" fill="black"/>
<circle cx="34.1723" cy="28.912" r="2.62835" fill="black"/>
<circle cx="39.4243" cy="7.88568" r="2.62835" fill="black"/>
<circle cx="39.4243" cy="2.62835" r="2.62835" fill="black"/>
<circle cx="39.4243" cy="13.142" r="2.62835" fill="black"/>
<circle cx="39.4243" cy="18.3979" r="2.62835" fill="black"/>
<circle cx="39.4243" cy="23.6547" r="2.62835" fill="black"/>
<circle cx="39.4243" cy="28.912" r="2.62835" fill="black"/>
<circle cx="44.683" cy="7.88568" r="2.62835" fill="black"/>
<circle cx="44.683" cy="2.62835" r="2.62835" fill="black"/>
<circle cx="44.683" cy="13.142" r="2.62835" fill="black"/>
<circle cx="44.683" cy="18.3979" r="2.62835" fill="black"/>
<circle cx="44.683" cy="23.6547" r="2.62835" fill="black"/>
<circle cx="44.683" cy="28.912" r="2.62835" fill="black"/>
<circle cx="49.9389" cy="7.88568" r="2.62835" fill="black"/>
<circle cx="49.9389" cy="13.142" r="2.62835" fill="black"/>
<circle cx="55.1938" cy="13.142" r="2.62835" fill="black"/>
<circle cx="49.9389" cy="18.3979" r="2.62835" fill="black"/>
<circle cx="55.1938" cy="18.3979" r="2.62835" fill="black"/>
<circle cx="49.9389" cy="23.6547" r="2.62835" fill="black"/>
<circle cx="55.1938" cy="23.6547" r="2.62835" fill="black"/>
<circle cx="49.9389" cy="28.912" r="2.62835" fill="black"/>
<circle cx="13.143" cy="34.1684" r="2.62835" fill="black"/>
<circle cx="18.395" cy="34.1684" r="2.62835" fill="black"/>
<circle cx="23.6577" cy="34.1684" r="2.62835" fill="black"/>
<circle cx="28.9096" cy="34.1684" r="2.62835" fill="black"/>
<circle cx="34.1723" cy="34.1684" r="2.62835" fill="black"/>
<circle cx="39.4243" cy="34.1684" r="2.62835" fill="black"/>
<circle cx="44.683" cy="34.1684" r="2.62835" fill="black"/>
</svg>
