<svg width="27" height="28" viewBox="0 0 27 28" fill="none" xmlns="http://www.w3.org/2000/svg">
<circle cx="13.283" cy="2.14234" r="1.42652" fill="#E7EAE9"/>
<circle cx="21.8728" cy="5.41383" r="1.42652" fill="#E7EAE9"/>
<circle cx="25.1428" cy="13.9998" r="1.42652" fill="#E7EAE9"/>
<circle cx="21.8728" cy="22.5867" r="1.42652" fill="#E7EAE9"/>
<circle cx="13.283" cy="25.8572" r="1.42652" fill="#E7EAE9"/>
<circle cx="4.69801" cy="22.5867" r="1.42652" fill="#E7EAE9"/>
<circle cx="1.42652" cy="13.9998" r="1.42652" fill="#E7EAE9"/>
<circle cx="4.28834" cy="5.41383" r="1.42652" fill="#E7EAE9"/>
<circle cx="10.4226" cy="8.27515" r="1.42652" fill="#E7EAE9"/>
<circle cx="10.4226" cy="11.1375" r="1.42652" fill="#E7EAE9"/>
<circle cx="7.55836" cy="11.1375" r="1.42652" fill="#E7EAE9"/>
<circle cx="19.0081" cy="11.1375" r="1.42652" fill="#E7EAE9"/>
<circle cx="7.55836" cy="13.9998" r="1.42652" fill="#E7EAE9"/>
<circle cx="19.0081" cy="13.9998" r="1.42652" fill="#E7EAE9"/>
<circle cx="7.55836" cy="16.8621" r="1.42652" fill="#E7EAE9"/>
<circle cx="19.0081" cy="16.8621" r="1.42652" fill="#E7EAE9"/>
<circle cx="10.4226" cy="13.9998" r="1.42652" fill="#E7EAE9"/>
<circle cx="10.4226" cy="16.8621" r="1.42652" fill="#E7EAE9"/>
<circle cx="10.4226" cy="19.7253" r="1.42652" fill="#E7EAE9"/>
<circle cx="13.283" cy="8.27515" r="1.42652" fill="#E7EAE9"/>
<circle cx="13.283" cy="11.1375" r="1.42652" fill="#E7EAE9"/>
<circle cx="13.283" cy="13.9998" r="1.42652" fill="#E7EAE9"/>
<circle cx="13.283" cy="16.8621" r="1.42652" fill="#E7EAE9"/>
<circle cx="13.283" cy="19.7253" r="1.42652" fill="#E7EAE9"/>
<circle cx="16.1477" cy="8.27515" r="1.42652" fill="#E7EAE9"/>
<circle cx="16.1477" cy="11.1375" r="1.42652" fill="#E7EAE9"/>
<circle cx="16.1477" cy="13.9998" r="1.42652" fill="#E7EAE9"/>
<circle cx="16.1477" cy="16.8621" r="1.42652" fill="#E7EAE9"/>
<circle cx="16.1477" cy="19.7253" r="1.42652" fill="#E7EAE9"/>
</svg>
