<svg width="121" height="14" viewBox="0 0 121 14" fill="none" xmlns="http://www.w3.org/2000/svg">
<path d="M1.5625 14C1.28711 14 1.05273 13.9033 0.859375 13.71C0.666016 13.5166 0.569336 13.2822 0.569336 13.0068C0.569336 12.7314 0.666016 12.4941 0.859375 12.2949C1.05273 12.1016 1.28711 12.0049 1.5625 12.0049C1.83789 12.0049 2.0752 12.1016 2.27441 12.2949C2.46777 12.4941 2.56445 12.7314 2.56445 13.0068C2.56445 13.2822 2.46777 13.5166 2.27441 13.71C2.0752 13.9033 1.83789 14 1.5625 14ZM1.5625 12.0049C1.28711 12.0049 1.05273 11.9082 0.859375 11.7148C0.666016 11.5156 0.569336 11.2783 0.569336 11.0029C0.569336 10.7275 0.666016 10.4932 0.859375 10.2998C1.05273 10.1006 1.28711 10.001 1.5625 10.001C1.83789 10.001 2.0752 10.1006 2.27441 10.2998C2.46777 10.4932 2.56445 10.7275 2.56445 11.0029C2.56445 11.2783 2.46777 11.5156 2.27441 11.7148C2.0752 11.9082 1.83789 12.0049 1.5625 12.0049ZM1.5625 10.001C1.28711 10.001 1.05273 9.9043 0.859375 9.71094C0.666016 9.51758 0.569336 9.2832 0.569336 9.00781C0.569336 8.72656 0.666016 8.48926 0.859375 8.2959C1.05273 8.10254 1.28711 8.00586 1.5625 8.00586C1.83789 8.00586 2.0752 8.10254 2.27441 8.2959C2.46777 8.49512 2.56445 8.73242 2.56445 9.00781C2.56445 9.2832 2.46777 9.51758 2.27441 9.71094C2.0752 9.9043 1.83789 10.001 1.5625 10.001ZM1.5625 8.00586C1.28711 8.00586 1.05273 7.90625 0.859375 7.70703C0.666016 7.51367 0.569336 7.2793 0.569336 7.00391C0.569336 6.72852 0.666016 6.49414 0.859375 6.30078C1.05273 6.10156 1.28711 6.00195 1.5625 6.00195C1.83789 6.00195 2.0752 6.10156 2.27441 6.30078C2.46777 6.49414 2.56445 6.72852 2.56445 7.00391C2.56445 7.2793 2.46777 7.51367 2.27441 7.70703C2.0752 7.90625 1.83789 8.00586 1.5625 8.00586ZM3.56641 8.00586C3.29102 8.00586 3.05371 7.90625 2.85449 7.70703C2.66113 7.51367 2.56445 7.2793 2.56445 7.00391C2.56445 6.72852 2.66113 6.49414 2.85449 6.30078C3.05371 6.10156 3.29102 6.00195 3.56641 6.00195C3.8418 6.00195 4.07617 6.10156 4.26953 6.30078C4.46875 6.49414 4.56836 6.72852 4.56836 7.00391C4.56836 7.2793 4.46875 7.51367 4.26953 7.70703C4.07617 7.90625 3.8418 8.00586 3.56641 8.00586ZM5.56152 8.00586C5.28613 8.00586 5.05176 7.90625 4.8584 7.70703C4.66504 7.51367 4.56836 7.2793 4.56836 7.00391C4.56836 6.72852 4.66504 6.49414 4.8584 6.30078C5.05176 6.10156 5.28613 6.00195 5.56152 6.00195C5.84277 6.00195 6.08008 6.10156 6.27344 6.30078C6.4668 6.49414 6.56348 6.72852 6.56348 7.00391C6.56348 7.2793 6.4668 7.51367 6.27344 7.70703C6.07422 7.90625 5.83691 8.00586 5.56152 8.00586ZM7.56543 8.00586C7.29004 8.00586 7.05566 7.90625 6.8623 7.70703C6.66309 7.51367 6.56348 7.2793 6.56348 7.00391C6.56348 6.72852 6.66309 6.49414 6.8623 6.30078C7.05566 6.10156 7.29004 6.00195 7.56543 6.00195C7.84082 6.00195 8.0752 6.10156 8.26855 6.30078C8.46777 6.49414 8.56738 6.72852 8.56738 7.00391C8.56738 7.2793 8.46777 7.51367 8.26855 7.70703C8.0752 7.90625 7.84082 8.00586 7.56543 8.00586ZM1.5625 6.00195C1.28711 6.00195 1.05273 5.90527 0.859375 5.71191C0.666016 5.51855 0.569336 5.28125 0.569336 5C0.569336 4.72461 0.666016 4.49023 0.859375 4.29688C1.05273 4.10352 1.28711 4.00684 1.5625 4.00684C1.83789 4.00684 2.0752 4.10352 2.27441 4.29688C2.46777 4.49023 2.56445 4.72461 2.56445 5C2.56445 5.28125 2.46777 5.51855 2.27441 5.71191C2.0752 5.90527 1.83789 6.00195 1.5625 6.00195ZM9.56934 6.00195C9.28809 6.00195 9.05078 5.90527 8.85742 5.71191C8.66406 5.51855 8.56738 5.28125 8.56738 5C8.56738 4.72461 8.66406 4.49023 8.85742 4.29688C9.05078 4.10352 9.28809 4.00684 9.56934 4.00684C9.84473 4.00684 10.0791 4.10352 10.2725 4.29688C10.4658 4.49023 10.5625 4.72461 10.5625 5C10.5625 5.28125 10.4658 5.51855 10.2725 5.71191C10.0791 5.90527 9.84473 6.00195 9.56934 6.00195ZM1.5625 4.00684C1.28711 4.00684 1.05273 3.90723 0.859375 3.70801C0.666016 3.51465 0.569336 3.28027 0.569336 3.00488C0.569336 2.72949 0.666016 2.49512 0.859375 2.30176C1.05273 2.10254 1.28711 2.00293 1.5625 2.00293C1.83789 2.00293 2.0752 2.10254 2.27441 2.30176C2.46777 2.49512 2.56445 2.72949 2.56445 3.00488C2.56445 3.28027 2.46777 3.51465 2.27441 3.70801C2.0752 3.90723 1.83789 4.00684 1.5625 4.00684ZM9.56934 4.00684C9.28809 4.00684 9.05078 3.90723 8.85742 3.70801C8.66406 3.51465 8.56738 3.28027 8.56738 3.00488C8.56738 2.72949 8.66406 2.49512 8.85742 2.30176C9.05078 2.10254 9.28809 2.00293 9.56934 2.00293C9.84473 2.00293 10.0791 2.10254 10.2725 2.30176C10.4658 2.49512 10.5625 2.72949 10.5625 3.00488C10.5625 3.28027 10.4658 3.51465 10.2725 3.70801C10.0791 3.90723 9.84473 4.00684 9.56934 4.00684ZM1.5625 2.00293C1.28711 2.00293 1.05273 1.90625 0.859375 1.71289C0.666016 1.51367 0.569336 1.27637 0.569336 1.00098C0.569336 0.725586 0.666016 0.491211 0.859375 0.297852C1.05273 0.104492 1.28711 0.0078125 1.5625 0.0078125C1.83789 0.0078125 2.0752 0.104492 2.27441 0.297852C2.46777 0.491211 2.56445 0.725586 2.56445 1.00098C2.56445 1.28223 2.46777 1.51953 2.27441 1.71289C2.0752 1.90625 1.83789 2.00293 1.5625 2.00293ZM3.56641 2.00293C3.29102 2.00293 3.05371 1.90625 2.85449 1.71289C2.66113 1.51367 2.56445 1.27637 2.56445 1.00098C2.56445 0.725586 2.66113 0.491211 2.85449 0.297852C3.05371 0.104492 3.29102 0.0078125 3.56641 0.0078125C3.8418 0.0078125 4.07617 0.104492 4.26953 0.297852C4.46875 0.491211 4.56836 0.725586 4.56836 1.00098C4.56836 1.28223 4.46875 1.51953 4.26953 1.71289C4.07617 1.90625 3.8418 2.00293 3.56641 2.00293ZM5.56152 2.00293C5.28613 2.00293 5.05176 1.90625 4.8584 1.71289C4.66504 1.51367 4.56836 1.27637 4.56836 1.00098C4.56836 0.725586 4.66504 0.491211 4.8584 0.297852C5.05176 0.104492 5.28613 0.0078125 5.56152 0.0078125C5.84277 0.0078125 6.08008 0.104492 6.27344 0.297852C6.4668 0.491211 6.56348 0.725586 6.56348 1.00098C6.56348 1.28223 6.4668 1.51953 6.27344 1.71289C6.07422 1.90625 5.83691 2.00293 5.56152 2.00293ZM7.56543 2.00293C7.29004 2.00293 7.05566 1.90625 6.8623 1.71289C6.66309 1.51367 6.56348 1.27637 6.56348 1.00098C6.56348 0.725586 6.66309 0.491211 6.8623 0.297852C7.05566 0.104492 7.29004 0.0078125 7.56543 0.0078125C7.84082 0.0078125 8.0752 0.104492 8.26855 0.297852C8.46777 0.491211 8.56738 0.725586 8.56738 1.00098C8.56738 1.28223 8.46777 1.51953 8.26855 1.71289C8.0752 1.90625 7.84082 2.00293 7.56543 2.00293ZM15.5723 14C15.2969 14 15.0596 13.9033 14.8604 13.71C14.667 13.5166 14.5703 13.2822 14.5703 13.0068C14.5703 12.7314 14.667 12.4941 14.8604 12.2949C15.0596 12.1016 15.2969 12.0049 15.5723 12.0049C15.8477 12.0049 16.082 12.1016 16.2754 12.2949C16.4746 12.4941 16.5742 12.7314 16.5742 13.0068C16.5742 13.2822 16.4746 13.5166 16.2754 13.71C16.082 13.9033 15.8477 14 15.5723 14ZM17.5674 14C17.292 14 17.0576 13.9033 16.8643 13.71C16.6709 13.5166 16.5742 13.2822 16.5742 13.0068C16.5742 12.7314 16.6709 12.4941 16.8643 12.2949C17.0576 12.1016 17.292 12.0049 17.5674 12.0049C17.8486 12.0049 18.0859 12.1016 18.2793 12.2949C18.4727 12.4941 18.5693 12.7314 18.5693 13.0068C18.5693 13.2822 18.4727 13.5166 18.2793 13.71C18.0801 13.9033 17.8428 14 17.5674 14ZM15.5723 12.0049C15.2969 12.0049 15.0596 11.9082 14.8604 11.7148C14.667 11.5156 14.5703 11.2783 14.5703 11.0029C14.5703 10.7275 14.667 10.4932 14.8604 10.2998C15.0596 10.1006 15.2969 10.001 15.5723 10.001C15.8477 10.001 16.082 10.1006 16.2754 10.2998C16.4746 10.4932 16.5742 10.7275 16.5742 11.0029C16.5742 11.2783 16.4746 11.5156 16.2754 11.7148C16.082 11.9082 15.8477 12.0049 15.5723 12.0049ZM15.5723 10.001C15.2969 10.001 15.0596 9.9043 14.8604 9.71094C14.667 9.51758 14.5703 9.2832 14.5703 9.00781C14.5703 8.72656 14.667 8.48926 14.8604 8.2959C15.0596 8.10254 15.2969 8.00586 15.5723 8.00586C15.8477 8.00586 16.082 8.10254 16.2754 8.2959C16.4746 8.49512 16.5742 8.73242 16.5742 9.00781C16.5742 9.2832 16.4746 9.51758 16.2754 9.71094C16.082 9.9043 15.8477 10.001 15.5723 10.001ZM15.5723 8.00586C15.2969 8.00586 15.0596 7.90625 14.8604 7.70703C14.667 7.51367 14.5703 7.2793 14.5703 7.00391C14.5703 6.72852 14.667 6.49414 14.8604 6.30078C15.0596 6.10156 15.2969 6.00195 15.5723 6.00195C15.8477 6.00195 16.082 6.10156 16.2754 6.30078C16.4746 6.49414 16.5742 6.72852 16.5742 7.00391C16.5742 7.2793 16.4746 7.51367 16.2754 7.70703C16.082 7.90625 15.8477 8.00586 15.5723 8.00586ZM13.5684 6.00195C13.293 6.00195 13.0586 5.90527 12.8652 5.71191C12.6719 5.51855 12.5752 5.28125 12.5752 5C12.5752 4.72461 12.6719 4.49023 12.8652 4.29688C13.0586 4.10352 13.293 4.00684 13.5684 4.00684C13.8438 4.00684 14.0811 4.10352 14.2803 4.29688C14.4736 4.49023 14.5703 4.72461 14.5703 5C14.5703 5.28125 14.4736 5.51855 14.2803 5.71191C14.0811 5.90527 13.8438 6.00195 13.5684 6.00195ZM15.5723 6.00195C15.2969 6.00195 15.0596 5.90527 14.8604 5.71191C14.667 5.51855 14.5703 5.28125 14.5703 5C14.5703 4.72461 14.667 4.49023 14.8604 4.29688C15.0596 4.10352 15.2969 4.00684 15.5723 4.00684C15.8477 4.00684 16.082 4.10352 16.2754 4.29688C16.4746 4.49023 16.5742 4.72461 16.5742 5C16.5742 5.28125 16.4746 5.51855 16.2754 5.71191C16.082 5.90527 15.8477 6.00195 15.5723 6.00195ZM15.5723 2.00293C15.2969 2.00293 15.0596 1.90625 14.8604 1.71289C14.667 1.51367 14.5703 1.27637 14.5703 1.00098C14.5703 0.725586 14.667 0.491211 14.8604 0.297852C15.0596 0.104492 15.2969 0.0078125 15.5723 0.0078125C15.8477 0.0078125 16.082 0.104492 16.2754 0.297852C16.4746 0.491211 16.5742 0.725586 16.5742 1.00098C16.5742 1.28223 16.4746 1.51953 16.2754 1.71289C16.082 1.90625 15.8477 2.00293 15.5723 2.00293ZM21.5664 14C21.291 14 21.0566 13.9033 20.8633 13.71C20.6699 13.5166 20.5732 13.2822 20.5732 13.0068C20.5732 12.7314 20.6699 12.4941 20.8633 12.2949C21.0566 12.1016 21.291 12.0049 21.5664 12.0049C21.8418 12.0049 22.0791 12.1016 22.2783 12.2949C22.4717 12.4941 22.5684 12.7314 22.5684 13.0068C22.5684 13.2822 22.4717 13.5166 22.2783 13.71C22.0791 13.9033 21.8418 14 21.5664 14ZM29.5732 14C29.292 14 29.0547 13.9033 28.8613 13.71C28.668 13.5166 28.5713 13.2822 28.5713 13.0068C28.5713 12.7314 28.668 12.4941 28.8613 12.2949C29.0547 12.1016 29.292 12.0049 29.5732 12.0049C29.8486 12.0049 30.083 12.1016 30.2764 12.2949C30.4697 12.4941 30.5664 12.7314 30.5664 13.0068C30.5664 13.2822 30.4697 13.5166 30.2764 13.71C30.083 13.9033 29.8486 14 29.5732 14ZM23.5703 12.0049C23.2949 12.0049 23.0576 11.9082 22.8584 11.7148C22.665 11.5156 22.5684 11.2783 22.5684 11.0029C22.5684 10.7275 22.665 10.4932 22.8584 10.2998C23.0576 10.1006 23.2949 10.001 23.5703 10.001C23.8457 10.001 24.0801 10.1006 24.2734 10.2998C24.4727 10.4932 24.5723 10.7275 24.5723 11.0029C24.5723 11.2783 24.4727 11.5156 24.2734 11.7148C24.0801 11.9082 23.8457 12.0049 23.5703 12.0049ZM27.5693 12.0049C27.2939 12.0049 27.0596 11.9082 26.8662 11.7148C26.667 11.5156 26.5674 11.2783 26.5674 11.0029C26.5674 10.7275 26.667 10.4932 26.8662 10.2998C27.0596 10.1006 27.2939 10.001 27.5693 10.001C27.8447 10.001 28.0791 10.1006 28.2725 10.2998C28.4717 10.4932 28.5713 10.7275 28.5713 11.0029C28.5713 11.2783 28.4717 11.5156 28.2725 11.7148C28.0791 11.9082 27.8447 12.0049 27.5693 12.0049ZM25.5654 10.001C25.29 10.001 25.0557 9.9043 24.8623 9.71094C24.6689 9.51758 24.5723 9.2832 24.5723 9.00781C24.5723 8.72656 24.6689 8.48926 24.8623 8.2959C25.0557 8.10254 25.29 8.00586 25.5654 8.00586C25.8467 8.00586 26.084 8.10254 26.2773 8.2959C26.4707 8.49512 26.5674 8.73242 26.5674 9.00781C26.5674 9.2832 26.4707 9.51758 26.2773 9.71094C26.0781 9.9043 25.8408 10.001 25.5654 10.001ZM23.5703 8.00586C23.2949 8.00586 23.0576 7.90625 22.8584 7.70703C22.665 7.51367 22.5684 7.2793 22.5684 7.00391C22.5684 6.72852 22.665 6.49414 22.8584 6.30078C23.0576 6.10156 23.2949 6.00195 23.5703 6.00195C23.8457 6.00195 24.0801 6.10156 24.2734 6.30078C24.4727 6.49414 24.5723 6.72852 24.5723 7.00391C24.5723 7.2793 24.4727 7.51367 24.2734 7.70703C24.0801 7.90625 23.8457 8.00586 23.5703 8.00586ZM27.5693 8.00586C27.2939 8.00586 27.0596 7.90625 26.8662 7.70703C26.667 7.51367 26.5674 7.2793 26.5674 7.00391C26.5674 6.72852 26.667 6.49414 26.8662 6.30078C27.0596 6.10156 27.2939 6.00195 27.5693 6.00195C27.8447 6.00195 28.0791 6.10156 28.2725 6.30078C28.4717 6.49414 28.5713 6.72852 28.5713 7.00391C28.5713 7.2793 28.4717 7.51367 28.2725 7.70703C28.0791 7.90625 27.8447 8.00586 27.5693 8.00586ZM21.5664 6.00195C21.291 6.00195 21.0566 5.90527 20.8633 5.71191C20.6699 5.51855 20.5732 5.28125 20.5732 5C20.5732 4.72461 20.6699 4.49023 20.8633 4.29688C21.0566 4.10352 21.291 4.00684 21.5664 4.00684C21.8418 4.00684 22.0791 4.10352 22.2783 4.29688C22.4717 4.49023 22.5684 4.72461 22.5684 5C22.5684 5.28125 22.4717 5.51855 22.2783 5.71191C22.0791 5.90527 21.8418 6.00195 21.5664 6.00195ZM29.5732 6.00195C29.292 6.00195 29.0547 5.90527 28.8613 5.71191C28.668 5.51855 28.5713 5.28125 28.5713 5C28.5713 4.72461 28.668 4.49023 28.8613 4.29688C29.0547 4.10352 29.292 4.00684 29.5732 4.00684C29.8486 4.00684 30.083 4.10352 30.2764 4.29688C30.4697 4.49023 30.5664 4.72461 30.5664 5C30.5664 5.28125 30.4697 5.51855 30.2764 5.71191C30.083 5.90527 29.8486 6.00195 29.5732 6.00195ZM35.5762 14C35.3008 14 35.0635 13.9033 34.8643 13.71C34.6709 13.5166 34.5742 13.2822 34.5742 13.0068C34.5742 12.7314 34.6709 12.4941 34.8643 12.2949C35.0635 12.1016 35.3008 12.0049 35.5762 12.0049C35.8516 12.0049 36.0859 12.1016 36.2793 12.2949C36.4785 12.4941 36.5781 12.7314 36.5781 13.0068C36.5781 13.2822 36.4785 13.5166 36.2793 13.71C36.0859 13.9033 35.8516 14 35.5762 14ZM37.5713 14C37.2959 14 37.0615 13.9033 36.8682 13.71C36.6748 13.5166 36.5781 13.2822 36.5781 13.0068C36.5781 12.7314 36.6748 12.4941 36.8682 12.2949C37.0615 12.1016 37.2959 12.0049 37.5713 12.0049C37.8525 12.0049 38.0898 12.1016 38.2832 12.2949C38.4766 12.4941 38.5732 12.7314 38.5732 13.0068C38.5732 13.2822 38.4766 13.5166 38.2832 13.71C38.084 13.9033 37.8467 14 37.5713 14ZM35.5762 12.0049C35.3008 12.0049 35.0635 11.9082 34.8643 11.7148C34.6709 11.5156 34.5742 11.2783 34.5742 11.0029C34.5742 10.7275 34.6709 10.4932 34.8643 10.2998C35.0635 10.1006 35.3008 10.001 35.5762 10.001C35.8516 10.001 36.0859 10.1006 36.2793 10.2998C36.4785 10.4932 36.5781 10.7275 36.5781 11.0029C36.5781 11.2783 36.4785 11.5156 36.2793 11.7148C36.0859 11.9082 35.8516 12.0049 35.5762 12.0049ZM35.5762 10.001C35.3008 10.001 35.0635 9.9043 34.8643 9.71094C34.6709 9.51758 34.5742 9.2832 34.5742 9.00781C34.5742 8.72656 34.6709 8.48926 34.8643 8.2959C35.0635 8.10254 35.3008 8.00586 35.5762 8.00586C35.8516 8.00586 36.0859 8.10254 36.2793 8.2959C36.4785 8.49512 36.5781 8.73242 36.5781 9.00781C36.5781 9.2832 36.4785 9.51758 36.2793 9.71094C36.0859 9.9043 35.8516 10.001 35.5762 10.001ZM35.5762 8.00586C35.3008 8.00586 35.0635 7.90625 34.8643 7.70703C34.6709 7.51367 34.5742 7.2793 34.5742 7.00391C34.5742 6.72852 34.6709 6.49414 34.8643 6.30078C35.0635 6.10156 35.3008 6.00195 35.5762 6.00195C35.8516 6.00195 36.0859 6.10156 36.2793 6.30078C36.4785 6.49414 36.5781 6.72852 36.5781 7.00391C36.5781 7.2793 36.4785 7.51367 36.2793 7.70703C36.0859 7.90625 35.8516 8.00586 35.5762 8.00586ZM33.5723 6.00195C33.2969 6.00195 33.0625 5.90527 32.8691 5.71191C32.6758 5.51855 32.5791 5.28125 32.5791 5C32.5791 4.72461 32.6758 4.49023 32.8691 4.29688C33.0625 4.10352 33.2969 4.00684 33.5723 4.00684C33.8477 4.00684 34.085 4.10352 34.2842 4.29688C34.4775 4.49023 34.5742 4.72461 34.5742 5C34.5742 5.28125 34.4775 5.51855 34.2842 5.71191C34.085 5.90527 33.8477 6.00195 33.5723 6.00195ZM35.5762 6.00195C35.3008 6.00195 35.0635 5.90527 34.8643 5.71191C34.6709 5.51855 34.5742 5.28125 34.5742 5C34.5742 4.72461 34.6709 4.49023 34.8643 4.29688C35.0635 4.10352 35.3008 4.00684 35.5762 4.00684C35.8516 4.00684 36.0859 4.10352 36.2793 4.29688C36.4785 4.49023 36.5781 4.72461 36.5781 5C36.5781 5.28125 36.4785 5.51855 36.2793 5.71191C36.0859 5.90527 35.8516 6.00195 35.5762 6.00195ZM35.5762 2.00293C35.3008 2.00293 35.0635 1.90625 34.8643 1.71289C34.6709 1.51367 34.5742 1.27637 34.5742 1.00098C34.5742 0.725586 34.6709 0.491211 34.8643 0.297852C35.0635 0.104492 35.3008 0.0078125 35.5762 0.0078125C35.8516 0.0078125 36.0859 0.104492 36.2793 0.297852C36.4785 0.491211 36.5781 0.725586 36.5781 1.00098C36.5781 1.28223 36.4785 1.51953 36.2793 1.71289C36.0859 1.90625 35.8516 2.00293 35.5762 2.00293ZM43.5742 14C43.2988 14 43.0615 13.9033 42.8623 13.71C42.6689 13.5166 42.5723 13.2822 42.5723 13.0068C42.5723 12.7314 42.6689 12.4941 42.8623 12.2949C43.0615 12.1016 43.2988 12.0049 43.5742 12.0049C43.8496 12.0049 44.084 12.1016 44.2773 12.2949C44.4766 12.4941 44.5762 12.7314 44.5762 13.0068C44.5762 13.2822 44.4766 13.5166 44.2773 13.71C44.084 13.9033 43.8496 14 43.5742 14ZM45.5693 14C45.2939 14 45.0596 13.9033 44.8662 13.71C44.6729 13.5166 44.5762 13.2822 44.5762 13.0068C44.5762 12.7314 44.6729 12.4941 44.8662 12.2949C45.0596 12.1016 45.2939 12.0049 45.5693 12.0049C45.8506 12.0049 46.0879 12.1016 46.2812 12.2949C46.4746 12.4941 46.5713 12.7314 46.5713 13.0068C46.5713 13.2822 46.4746 13.5166 46.2812 13.71C46.082 13.9033 45.8447 14 45.5693 14ZM47.5732 14C47.2979 14 47.0635 13.9033 46.8701 13.71C46.6709 13.5166 46.5713 13.2822 46.5713 13.0068C46.5713 12.7314 46.6709 12.4941 46.8701 12.2949C47.0635 12.1016 47.2979 12.0049 47.5732 12.0049C47.8486 12.0049 48.083 12.1016 48.2764 12.2949C48.4756 12.4941 48.5752 12.7314 48.5752 13.0068C48.5752 13.2822 48.4756 13.5166 48.2764 13.71C48.083 13.9033 47.8486 14 47.5732 14ZM41.5703 12.0049C41.2949 12.0049 41.0605 11.9082 40.8672 11.7148C40.6738 11.5156 40.5771 11.2783 40.5771 11.0029C40.5771 10.7275 40.6738 10.4932 40.8672 10.2998C41.0605 10.1006 41.2949 10.001 41.5703 10.001C41.8457 10.001 42.083 10.1006 42.2822 10.2998C42.4756 10.4932 42.5723 10.7275 42.5723 11.0029C42.5723 11.2783 42.4756 11.5156 42.2822 11.7148C42.083 11.9082 41.8457 12.0049 41.5703 12.0049ZM41.5703 10.001C41.2949 10.001 41.0605 9.9043 40.8672 9.71094C40.6738 9.51758 40.5771 9.2832 40.5771 9.00781C40.5771 8.72656 40.6738 8.48926 40.8672 8.2959C41.0605 8.10254 41.2949 8.00586 41.5703 8.00586C41.8457 8.00586 42.083 8.10254 42.2822 8.2959C42.4756 8.49512 42.5723 8.73242 42.5723 9.00781C42.5723 9.2832 42.4756 9.51758 42.2822 9.71094C42.083 9.9043 41.8457 10.001 41.5703 10.001ZM43.5742 10.001C43.2988 10.001 43.0615 9.9043 42.8623 9.71094C42.6689 9.51758 42.5723 9.2832 42.5723 9.00781C42.5723 8.72656 42.6689 8.48926 42.8623 8.2959C43.0615 8.10254 43.2988 8.00586 43.5742 8.00586C43.8496 8.00586 44.084 8.10254 44.2773 8.2959C44.4766 8.49512 44.5762 8.73242 44.5762 9.00781C44.5762 9.2832 44.4766 9.51758 44.2773 9.71094C44.084 9.9043 43.8496 10.001 43.5742 10.001ZM45.5693 10.001C45.2939 10.001 45.0596 9.9043 44.8662 9.71094C44.6729 9.51758 44.5762 9.2832 44.5762 9.00781C44.5762 8.72656 44.6729 8.48926 44.8662 8.2959C45.0596 8.10254 45.2939 8.00586 45.5693 8.00586C45.8506 8.00586 46.0879 8.10254 46.2812 8.2959C46.4746 8.49512 46.5713 8.73242 46.5713 9.00781C46.5713 9.2832 46.4746 9.51758 46.2812 9.71094C46.082 9.9043 45.8447 10.001 45.5693 10.001ZM47.5732 10.001C47.2979 10.001 47.0635 9.9043 46.8701 9.71094C46.6709 9.51758 46.5713 9.2832 46.5713 9.00781C46.5713 8.72656 46.6709 8.48926 46.8701 8.2959C47.0635 8.10254 47.2979 8.00586 47.5732 8.00586C47.8486 8.00586 48.083 8.10254 48.2764 8.2959C48.4756 8.49512 48.5752 8.73242 48.5752 9.00781C48.5752 9.2832 48.4756 9.51758 48.2764 9.71094C48.083 9.9043 47.8486 10.001 47.5732 10.001ZM41.5703 8.00586C41.2949 8.00586 41.0605 7.90625 40.8672 7.70703C40.6738 7.51367 40.5771 7.2793 40.5771 7.00391C40.5771 6.72852 40.6738 6.49414 40.8672 6.30078C41.0605 6.10156 41.2949 6.00195 41.5703 6.00195C41.8457 6.00195 42.083 6.10156 42.2822 6.30078C42.4756 6.49414 42.5723 6.72852 42.5723 7.00391C42.5723 7.2793 42.4756 7.51367 42.2822 7.70703C42.083 7.90625 41.8457 8.00586 41.5703 8.00586ZM47.5732 8.00586C47.2979 8.00586 47.0635 7.90625 46.8701 7.70703C46.6709 7.51367 46.5713 7.2793 46.5713 7.00391C46.5713 6.72852 46.6709 6.49414 46.8701 6.30078C47.0635 6.10156 47.2979 6.00195 47.5732 6.00195C47.8486 6.00195 48.083 6.10156 48.2764 6.30078C48.4756 6.49414 48.5752 6.72852 48.5752 7.00391C48.5752 7.2793 48.4756 7.51367 48.2764 7.70703C48.083 7.90625 47.8486 8.00586 47.5732 8.00586ZM43.5742 6.00195C43.2988 6.00195 43.0615 5.90527 42.8623 5.71191C42.6689 5.51855 42.5723 5.28125 42.5723 5C42.5723 4.72461 42.6689 4.49023 42.8623 4.29688C43.0615 4.10352 43.2988 4.00684 43.5742 4.00684C43.8496 4.00684 44.084 4.10352 44.2773 4.29688C44.4766 4.49023 44.5762 4.72461 44.5762 5C44.5762 5.28125 44.4766 5.51855 44.2773 5.71191C44.084 5.90527 43.8496 6.00195 43.5742 6.00195ZM45.5693 6.00195C45.2939 6.00195 45.0596 5.90527 44.8662 5.71191C44.6729 5.51855 44.5762 5.28125 44.5762 5C44.5762 4.72461 44.6729 4.49023 44.8662 4.29688C45.0596 4.10352 45.2939 4.00684 45.5693 4.00684C45.8506 4.00684 46.0879 4.10352 46.2812 4.29688C46.4746 4.49023 46.5713 4.72461 46.5713 5C46.5713 5.28125 46.4746 5.51855 46.2812 5.71191C46.082 5.90527 45.8447 6.00195 45.5693 6.00195ZM51.5723 14C51.2969 14 51.0625 13.9033 50.8691 13.71C50.6758 13.5166 50.5791 13.2822 50.5791 13.0068C50.5791 12.7314 50.6758 12.4941 50.8691 12.2949C51.0625 12.1016 51.2969 12.0049 51.5723 12.0049C51.8477 12.0049 52.085 12.1016 52.2842 12.2949C52.4775 12.4941 52.5742 12.7314 52.5742 13.0068C52.5742 13.2822 52.4775 13.5166 52.2842 13.71C52.085 13.9033 51.8477 14 51.5723 14ZM53.5762 14C53.3008 14 53.0635 13.9033 52.8643 13.71C52.6709 13.5166 52.5742 13.2822 52.5742 13.0068C52.5742 12.7314 52.6709 12.4941 52.8643 12.2949C53.0635 12.1016 53.3008 12.0049 53.5762 12.0049C53.8516 12.0049 54.0859 12.1016 54.2793 12.2949C54.4785 12.4941 54.5781 12.7314 54.5781 13.0068C54.5781 13.2822 54.4785 13.5166 54.2793 13.71C54.0859 13.9033 53.8516 14 53.5762 14ZM57.5752 14C57.2998 14 57.0654 13.9033 56.8721 13.71C56.6729 13.5166 56.5732 13.2822 56.5732 13.0068C56.5732 12.7314 56.6729 12.4941 56.8721 12.2949C57.0654 12.1016 57.2998 12.0049 57.5752 12.0049C57.8506 12.0049 58.085 12.1016 58.2783 12.2949C58.4775 12.4941 58.5771 12.7314 58.5771 13.0068C58.5771 13.2822 58.4775 13.5166 58.2783 13.71C58.085 13.9033 57.8506 14 57.5752 14ZM51.5723 12.0049C51.2969 12.0049 51.0625 11.9082 50.8691 11.7148C50.6758 11.5156 50.5791 11.2783 50.5791 11.0029C50.5791 10.7275 50.6758 10.4932 50.8691 10.2998C51.0625 10.1006 51.2969 10.001 51.5723 10.001C51.8477 10.001 52.085 10.1006 52.2842 10.2998C52.4775 10.4932 52.5742 10.7275 52.5742 11.0029C52.5742 11.2783 52.4775 11.5156 52.2842 11.7148C52.085 11.9082 51.8477 12.0049 51.5723 12.0049ZM55.5713 12.0049C55.2959 12.0049 55.0615 11.9082 54.8682 11.7148C54.6748 11.5156 54.5781 11.2783 54.5781 11.0029C54.5781 10.7275 54.6748 10.4932 54.8682 10.2998C55.0615 10.1006 55.2959 10.001 55.5713 10.001C55.8525 10.001 56.0898 10.1006 56.2832 10.2998C56.4766 10.4932 56.5732 10.7275 56.5732 11.0029C56.5732 11.2783 56.4766 11.5156 56.2832 11.7148C56.084 11.9082 55.8467 12.0049 55.5713 12.0049ZM59.5791 12.0049C59.2979 12.0049 59.0605 11.9082 58.8672 11.7148C58.6738 11.5156 58.5771 11.2783 58.5771 11.0029C58.5771 10.7275 58.6738 10.4932 58.8672 10.2998C59.0605 10.1006 59.2979 10.001 59.5791 10.001C59.8545 10.001 60.0889 10.1006 60.2822 10.2998C60.4756 10.4932 60.5723 10.7275 60.5723 11.0029C60.5723 11.2783 60.4756 11.5156 60.2822 11.7148C60.0889 11.9082 59.8545 12.0049 59.5791 12.0049ZM51.5723 10.001C51.2969 10.001 51.0625 9.9043 50.8691 9.71094C50.6758 9.51758 50.5791 9.2832 50.5791 9.00781C50.5791 8.72656 50.6758 8.48926 50.8691 8.2959C51.0625 8.10254 51.2969 8.00586 51.5723 8.00586C51.8477 8.00586 52.085 8.10254 52.2842 8.2959C52.4775 8.49512 52.5742 8.73242 52.5742 9.00781C52.5742 9.2832 52.4775 9.51758 52.2842 9.71094C52.085 9.9043 51.8477 10.001 51.5723 10.001ZM55.5713 10.001C55.2959 10.001 55.0615 9.9043 54.8682 9.71094C54.6748 9.51758 54.5781 9.2832 54.5781 9.00781C54.5781 8.72656 54.6748 8.48926 54.8682 8.2959C55.0615 8.10254 55.2959 8.00586 55.5713 8.00586C55.8525 8.00586 56.0898 8.10254 56.2832 8.2959C56.4766 8.49512 56.5732 8.73242 56.5732 9.00781C56.5732 9.2832 56.4766 9.51758 56.2832 9.71094C56.084 9.9043 55.8467 10.001 55.5713 10.001ZM59.5791 10.001C59.2979 10.001 59.0605 9.9043 58.8672 9.71094C58.6738 9.51758 58.5771 9.2832 58.5771 9.00781C58.5771 8.72656 58.6738 8.48926 58.8672 8.2959C59.0605 8.10254 59.2979 8.00586 59.5791 8.00586C59.8545 8.00586 60.0889 8.10254 60.2822 8.2959C60.4756 8.49512 60.5723 8.73242 60.5723 9.00781C60.5723 9.2832 60.4756 9.51758 60.2822 9.71094C60.0889 9.9043 59.8545 10.001 59.5791 10.001ZM51.5723 8.00586C51.2969 8.00586 51.0625 7.90625 50.8691 7.70703C50.6758 7.51367 50.5791 7.2793 50.5791 7.00391C50.5791 6.72852 50.6758 6.49414 50.8691 6.30078C51.0625 6.10156 51.2969 6.00195 51.5723 6.00195C51.8477 6.00195 52.085 6.10156 52.2842 6.30078C52.4775 6.49414 52.5742 6.72852 52.5742 7.00391C52.5742 7.2793 52.4775 7.51367 52.2842 7.70703C52.085 7.90625 51.8477 8.00586 51.5723 8.00586ZM55.5713 8.00586C55.2959 8.00586 55.0615 7.90625 54.8682 7.70703C54.6748 7.51367 54.5781 7.2793 54.5781 7.00391C54.5781 6.72852 54.6748 6.49414 54.8682 6.30078C55.0615 6.10156 55.2959 6.00195 55.5713 6.00195C55.8525 6.00195 56.0898 6.10156 56.2832 6.30078C56.4766 6.49414 56.5732 6.72852 56.5732 7.00391C56.5732 7.2793 56.4766 7.51367 56.2832 7.70703C56.084 7.90625 55.8467 8.00586 55.5713 8.00586ZM59.5791 8.00586C59.2979 8.00586 59.0605 7.90625 58.8672 7.70703C58.6738 7.51367 58.5771 7.2793 58.5771 7.00391C58.5771 6.72852 58.6738 6.49414 58.8672 6.30078C59.0605 6.10156 59.2979 6.00195 59.5791 6.00195C59.8545 6.00195 60.0889 6.10156 60.2822 6.30078C60.4756 6.49414 60.5723 6.72852 60.5723 7.00391C60.5723 7.2793 60.4756 7.51367 60.2822 7.70703C60.0889 7.90625 59.8545 8.00586 59.5791 8.00586ZM51.5723 6.00195C51.2969 6.00195 51.0625 5.90527 50.8691 5.71191C50.6758 5.51855 50.5791 5.28125 50.5791 5C50.5791 4.72461 50.6758 4.49023 50.8691 4.29688C51.0625 4.10352 51.2969 4.00684 51.5723 4.00684C51.8477 4.00684 52.085 4.10352 52.2842 4.29688C52.4775 4.49023 52.5742 4.72461 52.5742 5C52.5742 5.28125 52.4775 5.51855 52.2842 5.71191C52.085 5.90527 51.8477 6.00195 51.5723 6.00195ZM55.5713 6.00195C55.2959 6.00195 55.0615 5.90527 54.8682 5.71191C54.6748 5.51855 54.5781 5.28125 54.5781 5C54.5781 4.72461 54.6748 4.49023 54.8682 4.29688C55.0615 4.10352 55.2959 4.00684 55.5713 4.00684C55.8525 4.00684 56.0898 4.10352 56.2832 4.29688C56.4766 4.49023 56.5732 4.72461 56.5732 5C56.5732 5.28125 56.4766 5.51855 56.2832 5.71191C56.084 5.90527 55.8467 6.00195 55.5713 6.00195ZM59.5791 6.00195C59.2979 6.00195 59.0605 5.90527 58.8672 5.71191C58.6738 5.51855 58.5771 5.28125 58.5771 5C58.5771 4.72461 58.6738 4.49023 58.8672 4.29688C59.0605 4.10352 59.2979 4.00684 59.5791 4.00684C59.8545 4.00684 60.0889 4.10352 60.2822 4.29688C60.4756 4.49023 60.5723 4.72461 60.5723 5C60.5723 5.28125 60.4756 5.51855 60.2822 5.71191C60.0889 5.90527 59.8545 6.00195 59.5791 6.00195ZM65.582 14C65.3066 14 65.0693 13.9033 64.8701 13.71C64.6768 13.5166 64.5801 13.2822 64.5801 13.0068C64.5801 12.7314 64.6768 12.4941 64.8701 12.2949C65.0693 12.1016 65.3066 12.0049 65.582 12.0049C65.8574 12.0049 66.0918 12.1016 66.2852 12.2949C66.4844 12.4941 66.584 12.7314 66.584 13.0068C66.584 13.2822 66.4844 13.5166 66.2852 13.71C66.0918 13.9033 65.8574 14 65.582 14ZM67.5771 14C67.3018 14 67.0674 13.9033 66.874 13.71C66.6807 13.5166 66.584 13.2822 66.584 13.0068C66.584 12.7314 66.6807 12.4941 66.874 12.2949C67.0674 12.1016 67.3018 12.0049 67.5771 12.0049C67.8584 12.0049 68.0957 12.1016 68.2891 12.2949C68.4824 12.4941 68.5791 12.7314 68.5791 13.0068C68.5791 13.2822 68.4824 13.5166 68.2891 13.71C68.0898 13.9033 67.8525 14 67.5771 14ZM69.5811 14C69.3057 14 69.0713 13.9033 68.8779 13.71C68.6787 13.5166 68.5791 13.2822 68.5791 13.0068C68.5791 12.7314 68.6787 12.4941 68.8779 12.2949C69.0713 12.1016 69.3057 12.0049 69.5811 12.0049C69.8564 12.0049 70.0908 12.1016 70.2842 12.2949C70.4834 12.4941 70.583 12.7314 70.583 13.0068C70.583 13.2822 70.4834 13.5166 70.2842 13.71C70.0908 13.9033 69.8564 14 69.5811 14ZM63.5781 12.0049C63.3027 12.0049 63.0684 11.9082 62.875 11.7148C62.6816 11.5156 62.585 11.2783 62.585 11.0029C62.585 10.7275 62.6816 10.4932 62.875 10.2998C63.0684 10.1006 63.3027 10.001 63.5781 10.001C63.8535 10.001 64.0908 10.1006 64.29 10.2998C64.4834 10.4932 64.5801 10.7275 64.5801 11.0029C64.5801 11.2783 64.4834 11.5156 64.29 11.7148C64.0908 11.9082 63.8535 12.0049 63.5781 12.0049ZM63.5781 10.001C63.3027 10.001 63.0684 9.9043 62.875 9.71094C62.6816 9.51758 62.585 9.2832 62.585 9.00781C62.585 8.72656 62.6816 8.48926 62.875 8.2959C63.0684 8.10254 63.3027 8.00586 63.5781 8.00586C63.8535 8.00586 64.0908 8.10254 64.29 8.2959C64.4834 8.49512 64.5801 8.73242 64.5801 9.00781C64.5801 9.2832 64.4834 9.51758 64.29 9.71094C64.0908 9.9043 63.8535 10.001 63.5781 10.001ZM65.582 10.001C65.3066 10.001 65.0693 9.9043 64.8701 9.71094C64.6768 9.51758 64.5801 9.2832 64.5801 9.00781C64.5801 8.72656 64.6768 8.48926 64.8701 8.2959C65.0693 8.10254 65.3066 8.00586 65.582 8.00586C65.8574 8.00586 66.0918 8.10254 66.2852 8.2959C66.4844 8.49512 66.584 8.73242 66.584 9.00781C66.584 9.2832 66.4844 9.51758 66.2852 9.71094C66.0918 9.9043 65.8574 10.001 65.582 10.001ZM67.5771 10.001C67.3018 10.001 67.0674 9.9043 66.874 9.71094C66.6807 9.51758 66.584 9.2832 66.584 9.00781C66.584 8.72656 66.6807 8.48926 66.874 8.2959C67.0674 8.10254 67.3018 8.00586 67.5771 8.00586C67.8584 8.00586 68.0957 8.10254 68.2891 8.2959C68.4824 8.49512 68.5791 8.73242 68.5791 9.00781C68.5791 9.2832 68.4824 9.51758 68.2891 9.71094C68.0898 9.9043 67.8525 10.001 67.5771 10.001ZM69.5811 10.001C69.3057 10.001 69.0713 9.9043 68.8779 9.71094C68.6787 9.51758 68.5791 9.2832 68.5791 9.00781C68.5791 8.72656 68.6787 8.48926 68.8779 8.2959C69.0713 8.10254 69.3057 8.00586 69.5811 8.00586C69.8564 8.00586 70.0908 8.10254 70.2842 8.2959C70.4834 8.49512 70.583 8.73242 70.583 9.00781C70.583 9.2832 70.4834 9.51758 70.2842 9.71094C70.0908 9.9043 69.8564 10.001 69.5811 10.001ZM63.5781 8.00586C63.3027 8.00586 63.0684 7.90625 62.875 7.70703C62.6816 7.51367 62.585 7.2793 62.585 7.00391C62.585 6.72852 62.6816 6.49414 62.875 6.30078C63.0684 6.10156 63.3027 6.00195 63.5781 6.00195C63.8535 6.00195 64.0908 6.10156 64.29 6.30078C64.4834 6.49414 64.5801 6.72852 64.5801 7.00391C64.5801 7.2793 64.4834 7.51367 64.29 7.70703C64.0908 7.90625 63.8535 8.00586 63.5781 8.00586ZM69.5811 8.00586C69.3057 8.00586 69.0713 7.90625 68.8779 7.70703C68.6787 7.51367 68.5791 7.2793 68.5791 7.00391C68.5791 6.72852 68.6787 6.49414 68.8779 6.30078C69.0713 6.10156 69.3057 6.00195 69.5811 6.00195C69.8564 6.00195 70.0908 6.10156 70.2842 6.30078C70.4834 6.49414 70.583 6.72852 70.583 7.00391C70.583 7.2793 70.4834 7.51367 70.2842 7.70703C70.0908 7.90625 69.8564 8.00586 69.5811 8.00586ZM65.582 6.00195C65.3066 6.00195 65.0693 5.90527 64.8701 5.71191C64.6768 5.51855 64.5801 5.28125 64.5801 5C64.5801 4.72461 64.6768 4.49023 64.8701 4.29688C65.0693 4.10352 65.3066 4.00684 65.582 4.00684C65.8574 4.00684 66.0918 4.10352 66.2852 4.29688C66.4844 4.49023 66.584 4.72461 66.584 5C66.584 5.28125 66.4844 5.51855 66.2852 5.71191C66.0918 5.90527 65.8574 6.00195 65.582 6.00195ZM67.5771 6.00195C67.3018 6.00195 67.0674 5.90527 66.874 5.71191C66.6807 5.51855 66.584 5.28125 66.584 5C66.584 4.72461 66.6807 4.49023 66.874 4.29688C67.0674 4.10352 67.3018 4.00684 67.5771 4.00684C67.8584 4.00684 68.0957 4.10352 68.2891 4.29688C68.4824 4.49023 68.5791 4.72461 68.5791 5C68.5791 5.28125 68.4824 5.51855 68.2891 5.71191C68.0898 5.90527 67.8525 6.00195 67.5771 6.00195ZM75.584 14C75.3086 14 75.0713 13.9033 74.8721 13.71C74.6787 13.5166 74.582 13.2822 74.582 13.0068C74.582 12.7314 74.6787 12.4941 74.8721 12.2949C75.0713 12.1016 75.3086 12.0049 75.584 12.0049C75.8594 12.0049 76.0938 12.1016 76.2871 12.2949C76.4863 12.4941 76.5859 12.7314 76.5859 13.0068C76.5859 13.2822 76.4863 13.5166 76.2871 13.71C76.0938 13.9033 75.8594 14 75.584 14ZM77.5791 14C77.3037 14 77.0693 13.9033 76.876 13.71C76.6826 13.5166 76.5859 13.2822 76.5859 13.0068C76.5859 12.7314 76.6826 12.4941 76.876 12.2949C77.0693 12.1016 77.3037 12.0049 77.5791 12.0049C77.8604 12.0049 78.0977 12.1016 78.291 12.2949C78.4844 12.4941 78.5811 12.7314 78.5811 13.0068C78.5811 13.2822 78.4844 13.5166 78.291 13.71C78.0918 13.9033 77.8545 14 77.5791 14ZM79.583 14C79.3076 14 79.0732 13.9033 78.8799 13.71C78.6807 13.5166 78.5811 13.2822 78.5811 13.0068C78.5811 12.7314 78.6807 12.4941 78.8799 12.2949C79.0732 12.1016 79.3076 12.0049 79.583 12.0049C79.8584 12.0049 80.0928 12.1016 80.2861 12.2949C80.4854 12.4941 80.585 12.7314 80.585 13.0068C80.585 13.2822 80.4854 13.5166 80.2861 13.71C80.0928 13.9033 79.8584 14 79.583 14ZM73.5801 12.0049C73.3047 12.0049 73.0703 11.9082 72.877 11.7148C72.6836 11.5156 72.5869 11.2783 72.5869 11.0029C72.5869 10.7275 72.6836 10.4932 72.877 10.2998C73.0703 10.1006 73.3047 10.001 73.5801 10.001C73.8555 10.001 74.0928 10.1006 74.292 10.2998C74.4854 10.4932 74.582 10.7275 74.582 11.0029C74.582 11.2783 74.4854 11.5156 74.292 11.7148C74.0928 11.9082 73.8555 12.0049 73.5801 12.0049ZM79.583 12.0049C79.3076 12.0049 79.0732 11.9082 78.8799 11.7148C78.6807 11.5156 78.5811 11.2783 78.5811 11.0029C78.5811 10.7275 78.6807 10.4932 78.8799 10.2998C79.0732 10.1006 79.3076 10.001 79.583 10.001C79.8584 10.001 80.0928 10.1006 80.2861 10.2998C80.4854 10.4932 80.585 10.7275 80.585 11.0029C80.585 11.2783 80.4854 11.5156 80.2861 11.7148C80.0928 11.9082 79.8584 12.0049 79.583 12.0049ZM75.584 10.001C75.3086 10.001 75.0713 9.9043 74.8721 9.71094C74.6787 9.51758 74.582 9.2832 74.582 9.00781C74.582 8.72656 74.6787 8.48926 74.8721 8.2959C75.0713 8.10254 75.3086 8.00586 75.584 8.00586C75.8594 8.00586 76.0938 8.10254 76.2871 8.2959C76.4863 8.49512 76.5859 8.73242 76.5859 9.00781C76.5859 9.2832 76.4863 9.51758 76.2871 9.71094C76.0938 9.9043 75.8594 10.001 75.584 10.001ZM77.5791 10.001C77.3037 10.001 77.0693 9.9043 76.876 9.71094C76.6826 9.51758 76.5859 9.2832 76.5859 9.00781C76.5859 8.72656 76.6826 8.48926 76.876 8.2959C77.0693 8.10254 77.3037 8.00586 77.5791 8.00586C77.8604 8.00586 78.0977 8.10254 78.291 8.2959C78.4844 8.49512 78.5811 8.73242 78.5811 9.00781C78.5811 9.2832 78.4844 9.51758 78.291 9.71094C78.0918 9.9043 77.8545 10.001 77.5791 10.001ZM79.583 10.001C79.3076 10.001 79.0732 9.9043 78.8799 9.71094C78.6807 9.51758 78.5811 9.2832 78.5811 9.00781C78.5811 8.72656 78.6807 8.48926 78.8799 8.2959C79.0732 8.10254 79.3076 8.00586 79.583 8.00586C79.8584 8.00586 80.0928 8.10254 80.2861 8.2959C80.4854 8.49512 80.585 8.73242 80.585 9.00781C80.585 9.2832 80.4854 9.51758 80.2861 9.71094C80.0928 9.9043 79.8584 10.001 79.583 10.001ZM79.583 8.00586C79.3076 8.00586 79.0732 7.90625 78.8799 7.70703C78.6807 7.51367 78.5811 7.2793 78.5811 7.00391C78.5811 6.72852 78.6807 6.49414 78.8799 6.30078C79.0732 6.10156 79.3076 6.00195 79.583 6.00195C79.8584 6.00195 80.0928 6.10156 80.2861 6.30078C80.4854 6.49414 80.585 6.72852 80.585 7.00391C80.585 7.2793 80.4854 7.51367 80.2861 7.70703C80.0928 7.90625 79.8584 8.00586 79.583 8.00586ZM73.5801 6.00195C73.3047 6.00195 73.0703 5.90527 72.877 5.71191C72.6836 5.51855 72.5869 5.28125 72.5869 5C72.5869 4.72461 72.6836 4.49023 72.877 4.29688C73.0703 4.10352 73.3047 4.00684 73.5801 4.00684C73.8555 4.00684 74.0928 4.10352 74.292 4.29688C74.4854 4.49023 74.582 4.72461 74.582 5C74.582 5.28125 74.4854 5.51855 74.292 5.71191C74.0928 5.90527 73.8555 6.00195 73.5801 6.00195ZM75.584 6.00195C75.3086 6.00195 75.0713 5.90527 74.8721 5.71191C74.6787 5.51855 74.582 5.28125 74.582 5C74.582 4.72461 74.6787 4.49023 74.8721 4.29688C75.0713 4.10352 75.3086 4.00684 75.584 4.00684C75.8594 4.00684 76.0938 4.10352 76.2871 4.29688C76.4863 4.49023 76.5859 4.72461 76.5859 5C76.5859 5.28125 76.4863 5.51855 76.2871 5.71191C76.0938 5.90527 75.8594 6.00195 75.584 6.00195ZM77.5791 6.00195C77.3037 6.00195 77.0693 5.90527 76.876 5.71191C76.6826 5.51855 76.5859 5.28125 76.5859 5C76.5859 4.72461 76.6826 4.49023 76.876 4.29688C77.0693 4.10352 77.3037 4.00684 77.5791 4.00684C77.8604 4.00684 78.0977 4.10352 78.291 4.29688C78.4844 4.49023 78.5811 4.72461 78.5811 5C78.5811 5.28125 78.4844 5.51855 78.291 5.71191C78.0918 5.90527 77.8545 6.00195 77.5791 6.00195ZM87.5811 14C87.3057 14 87.0713 13.9033 86.8779 13.71C86.6846 13.5166 86.5879 13.2822 86.5879 13.0068C86.5879 12.7314 86.6846 12.4941 86.8779 12.2949C87.0713 12.1016 87.3057 12.0049 87.5811 12.0049C87.8623 12.0049 88.0996 12.1016 88.293 12.2949C88.4863 12.4941 88.583 12.7314 88.583 13.0068C88.583 13.2822 88.4863 13.5166 88.293 13.71C88.0938 13.9033 87.8564 14 87.5811 14ZM89.585 14C89.3096 14 89.0752 13.9033 88.8818 13.71C88.6826 13.5166 88.583 13.2822 88.583 13.0068C88.583 12.7314 88.6826 12.4941 88.8818 12.2949C89.0752 12.1016 89.3096 12.0049 89.585 12.0049C89.8604 12.0049 90.0947 12.1016 90.2881 12.2949C90.4873 12.4941 90.5869 12.7314 90.5869 13.0068C90.5869 13.2822 90.4873 13.5166 90.2881 13.71C90.0947 13.9033 89.8604 14 89.585 14ZM85.5859 12.0049C85.3105 12.0049 85.0732 11.9082 84.874 11.7148C84.6807 11.5156 84.584 11.2783 84.584 11.0029C84.584 10.7275 84.6807 10.4932 84.874 10.2998C85.0732 10.1006 85.3105 10.001 85.5859 10.001C85.8613 10.001 86.0957 10.1006 86.2891 10.2998C86.4883 10.4932 86.5879 10.7275 86.5879 11.0029C86.5879 11.2783 86.4883 11.5156 86.2891 11.7148C86.0957 11.9082 85.8613 12.0049 85.5859 12.0049ZM85.5859 10.001C85.3105 10.001 85.0732 9.9043 84.874 9.71094C84.6807 9.51758 84.584 9.2832 84.584 9.00781C84.584 8.72656 84.6807 8.48926 84.874 8.2959C85.0732 8.10254 85.3105 8.00586 85.5859 8.00586C85.8613 8.00586 86.0957 8.10254 86.2891 8.2959C86.4883 8.49512 86.5879 8.73242 86.5879 9.00781C86.5879 9.2832 86.4883 9.51758 86.2891 9.71094C86.0957 9.9043 85.8613 10.001 85.5859 10.001ZM85.5859 8.00586C85.3105 8.00586 85.0732 7.90625 84.874 7.70703C84.6807 7.51367 84.584 7.2793 84.584 7.00391C84.584 6.72852 84.6807 6.49414 84.874 6.30078C85.0732 6.10156 85.3105 6.00195 85.5859 6.00195C85.8613 6.00195 86.0957 6.10156 86.2891 6.30078C86.4883 6.49414 86.5879 6.72852 86.5879 7.00391C86.5879 7.2793 86.4883 7.51367 86.2891 7.70703C86.0957 7.90625 85.8613 8.00586 85.5859 8.00586ZM83.582 6.00195C83.3066 6.00195 83.0723 5.90527 82.8789 5.71191C82.6855 5.51855 82.5889 5.28125 82.5889 5C82.5889 4.72461 82.6855 4.49023 82.8789 4.29688C83.0723 4.10352 83.3066 4.00684 83.582 4.00684C83.8574 4.00684 84.0947 4.10352 84.2939 4.29688C84.4873 4.49023 84.584 4.72461 84.584 5C84.584 5.28125 84.4873 5.51855 84.2939 5.71191C84.0947 5.90527 83.8574 6.00195 83.582 6.00195ZM85.5859 6.00195C85.3105 6.00195 85.0732 5.90527 84.874 5.71191C84.6807 5.51855 84.584 5.28125 84.584 5C84.584 4.72461 84.6807 4.49023 84.874 4.29688C85.0732 4.10352 85.3105 4.00684 85.5859 4.00684C85.8613 4.00684 86.0957 4.10352 86.2891 4.29688C86.4883 4.49023 86.5879 4.72461 86.5879 5C86.5879 5.28125 86.4883 5.51855 86.2891 5.71191C86.0957 5.90527 85.8613 6.00195 85.5859 6.00195ZM87.5811 6.00195C87.3057 6.00195 87.0713 5.90527 86.8779 5.71191C86.6846 5.51855 86.5879 5.28125 86.5879 5C86.5879 4.72461 86.6846 4.49023 86.8779 4.29688C87.0713 4.10352 87.3057 4.00684 87.5811 4.00684C87.8623 4.00684 88.0996 4.10352 88.293 4.29688C88.4863 4.49023 88.583 4.72461 88.583 5C88.583 5.28125 88.4863 5.51855 88.293 5.71191C88.0938 5.90527 87.8564 6.00195 87.5811 6.00195ZM89.585 6.00195C89.3096 6.00195 89.0752 5.90527 88.8818 5.71191C88.6826 5.51855 88.583 5.28125 88.583 5C88.583 4.72461 88.6826 4.49023 88.8818 4.29688C89.0752 4.10352 89.3096 4.00684 89.585 4.00684C89.8604 4.00684 90.0947 4.10352 90.2881 4.29688C90.4873 4.49023 90.5869 4.72461 90.5869 5C90.5869 5.28125 90.4873 5.51855 90.2881 5.71191C90.0947 5.90527 89.8604 6.00195 89.585 6.00195ZM85.5859 4.00684C85.3105 4.00684 85.0732 3.90723 84.874 3.70801C84.6807 3.51465 84.584 3.28027 84.584 3.00488C84.584 2.72949 84.6807 2.49512 84.874 2.30176C85.0732 2.10254 85.3105 2.00293 85.5859 2.00293C85.8613 2.00293 86.0957 2.10254 86.2891 2.30176C86.4883 2.49512 86.5879 2.72949 86.5879 3.00488C86.5879 3.28027 86.4883 3.51465 86.2891 3.70801C86.0957 3.90723 85.8613 4.00684 85.5859 4.00684ZM93.584 14C93.3086 14 93.0742 13.9033 92.8809 13.71C92.6875 13.5166 92.5908 13.2822 92.5908 13.0068C92.5908 12.7314 92.6875 12.4941 92.8809 12.2949C93.0742 12.1016 93.3086 12.0049 93.584 12.0049C93.8594 12.0049 94.0967 12.1016 94.2959 12.2949C94.4893 12.4941 94.5859 12.7314 94.5859 13.0068C94.5859 13.2822 94.4893 13.5166 94.2959 13.71C94.0967 13.9033 93.8594 14 93.584 14ZM99.5869 14C99.3115 14 99.0771 13.9033 98.8838 13.71C98.6846 13.5166 98.585 13.2822 98.585 13.0068C98.585 12.7314 98.6846 12.4941 98.8838 12.2949C99.0771 12.1016 99.3115 12.0049 99.5869 12.0049C99.8623 12.0049 100.097 12.1016 100.29 12.2949C100.489 12.4941 100.589 12.7314 100.589 13.0068C100.589 13.2822 100.489 13.5166 100.29 13.71C100.097 13.9033 99.8623 14 99.5869 14ZM93.584 12.0049C93.3086 12.0049 93.0742 11.9082 92.8809 11.7148C92.6875 11.5156 92.5908 11.2783 92.5908 11.0029C92.5908 10.7275 92.6875 10.4932 92.8809 10.2998C93.0742 10.1006 93.3086 10.001 93.584 10.001C93.8594 10.001 94.0967 10.1006 94.2959 10.2998C94.4893 10.4932 94.5859 10.7275 94.5859 11.0029C94.5859 11.2783 94.4893 11.5156 94.2959 11.7148C94.0967 11.9082 93.8594 12.0049 93.584 12.0049ZM99.5869 12.0049C99.3115 12.0049 99.0771 11.9082 98.8838 11.7148C98.6846 11.5156 98.585 11.2783 98.585 11.0029C98.585 10.7275 98.6846 10.4932 98.8838 10.2998C99.0771 10.1006 99.3115 10.001 99.5869 10.001C99.8623 10.001 100.097 10.1006 100.29 10.2998C100.489 10.4932 100.589 10.7275 100.589 11.0029C100.589 11.2783 100.489 11.5156 100.29 11.7148C100.097 11.9082 99.8623 12.0049 99.5869 12.0049ZM93.584 10.001C93.3086 10.001 93.0742 9.9043 92.8809 9.71094C92.6875 9.51758 92.5908 9.2832 92.5908 9.00781C92.5908 8.72656 92.6875 8.48926 92.8809 8.2959C93.0742 8.10254 93.3086 8.00586 93.584 8.00586C93.8594 8.00586 94.0967 8.10254 94.2959 8.2959C94.4893 8.49512 94.5859 8.73242 94.5859 9.00781C94.5859 9.2832 94.4893 9.51758 94.2959 9.71094C94.0967 9.9043 93.8594 10.001 93.584 10.001ZM99.5869 10.001C99.3115 10.001 99.0771 9.9043 98.8838 9.71094C98.6846 9.51758 98.585 9.2832 98.585 9.00781C98.585 8.72656 98.6846 8.48926 98.8838 8.2959C99.0771 8.10254 99.3115 8.00586 99.5869 8.00586C99.8623 8.00586 100.097 8.10254 100.29 8.2959C100.489 8.49512 100.589 8.73242 100.589 9.00781C100.589 9.2832 100.489 9.51758 100.29 9.71094C100.097 9.9043 99.8623 10.001 99.5869 10.001ZM93.584 8.00586C93.3086 8.00586 93.0742 7.90625 92.8809 7.70703C92.6875 7.51367 92.5908 7.2793 92.5908 7.00391C92.5908 6.72852 92.6875 6.49414 92.8809 6.30078C93.0742 6.10156 93.3086 6.00195 93.584 6.00195C93.8594 6.00195 94.0967 6.10156 94.2959 6.30078C94.4893 6.49414 94.5859 6.72852 94.5859 7.00391C94.5859 7.2793 94.4893 7.51367 94.2959 7.70703C94.0967 7.90625 93.8594 8.00586 93.584 8.00586ZM95.5879 8.00586C95.3125 8.00586 95.0752 7.90625 94.876 7.70703C94.6826 7.51367 94.5859 7.2793 94.5859 7.00391C94.5859 6.72852 94.6826 6.49414 94.876 6.30078C95.0752 6.10156 95.3125 6.00195 95.5879 6.00195C95.8633 6.00195 96.0977 6.10156 96.291 6.30078C96.4902 6.49414 96.5898 6.72852 96.5898 7.00391C96.5898 7.2793 96.4902 7.51367 96.291 7.70703C96.0977 7.90625 95.8633 8.00586 95.5879 8.00586ZM99.5869 8.00586C99.3115 8.00586 99.0771 7.90625 98.8838 7.70703C98.6846 7.51367 98.585 7.2793 98.585 7.00391C98.585 6.72852 98.6846 6.49414 98.8838 6.30078C99.0771 6.10156 99.3115 6.00195 99.5869 6.00195C99.8623 6.00195 100.097 6.10156 100.29 6.30078C100.489 6.49414 100.589 6.72852 100.589 7.00391C100.589 7.2793 100.489 7.51367 100.29 7.70703C100.097 7.90625 99.8623 8.00586 99.5869 8.00586ZM93.584 6.00195C93.3086 6.00195 93.0742 5.90527 92.8809 5.71191C92.6875 5.51855 92.5908 5.28125 92.5908 5C92.5908 4.72461 92.6875 4.49023 92.8809 4.29688C93.0742 4.10352 93.3086 4.00684 93.584 4.00684C93.8594 4.00684 94.0967 4.10352 94.2959 4.29688C94.4893 4.49023 94.5859 4.72461 94.5859 5C94.5859 5.28125 94.4893 5.51855 94.2959 5.71191C94.0967 5.90527 93.8594 6.00195 93.584 6.00195ZM97.583 6.00195C97.3076 6.00195 97.0732 5.90527 96.8799 5.71191C96.6865 5.51855 96.5898 5.28125 96.5898 5C96.5898 4.72461 96.6865 4.49023 96.8799 4.29688C97.0732 4.10352 97.3076 4.00684 97.583 4.00684C97.8643 4.00684 98.1016 4.10352 98.2949 4.29688C98.4883 4.49023 98.585 4.72461 98.585 5C98.585 5.28125 98.4883 5.51855 98.2949 5.71191C98.0957 5.90527 97.8584 6.00195 97.583 6.00195ZM93.584 4.00684C93.3086 4.00684 93.0742 3.90723 92.8809 3.70801C92.6875 3.51465 92.5908 3.28027 92.5908 3.00488C92.5908 2.72949 92.6875 2.49512 92.8809 2.30176C93.0742 2.10254 93.3086 2.00293 93.584 2.00293C93.8594 2.00293 94.0967 2.10254 94.2959 2.30176C94.4893 2.49512 94.5859 2.72949 94.5859 3.00488C94.5859 3.28027 94.4893 3.51465 94.2959 3.70801C94.0967 3.90723 93.8594 4.00684 93.584 4.00684ZM93.584 2.00293C93.3086 2.00293 93.0742 1.90625 92.8809 1.71289C92.6875 1.51367 92.5908 1.27637 92.5908 1.00098C92.5908 0.725586 92.6875 0.491211 92.8809 0.297852C93.0742 0.104492 93.3086 0.0078125 93.584 0.0078125C93.8594 0.0078125 94.0967 0.104492 94.2959 0.297852C94.4893 0.491211 94.5859 0.725586 94.5859 1.00098C94.5859 1.28223 94.4893 1.51953 94.2959 1.71289C94.0967 1.90625 93.8594 2.00293 93.584 2.00293ZM105.59 14C105.314 14 105.077 13.9033 104.878 13.71C104.685 13.5166 104.588 13.2822 104.588 13.0068C104.588 12.7314 104.685 12.4941 104.878 12.2949C105.077 12.1016 105.314 12.0049 105.59 12.0049C105.865 12.0049 106.1 12.1016 106.293 12.2949C106.492 12.4941 106.592 12.7314 106.592 13.0068C106.592 13.2822 106.492 13.5166 106.293 13.71C106.1 13.9033 105.865 14 105.59 14ZM107.585 14C107.31 14 107.075 13.9033 106.882 13.71C106.688 13.5166 106.592 13.2822 106.592 13.0068C106.592 12.7314 106.688 12.4941 106.882 12.2949C107.075 12.1016 107.31 12.0049 107.585 12.0049C107.866 12.0049 108.104 12.1016 108.297 12.2949C108.49 12.4941 108.587 12.7314 108.587 13.0068C108.587 13.2822 108.49 13.5166 108.297 13.71C108.098 13.9033 107.86 14 107.585 14ZM109.589 14C109.313 14 109.079 13.9033 108.886 13.71C108.687 13.5166 108.587 13.2822 108.587 13.0068C108.587 12.7314 108.687 12.4941 108.886 12.2949C109.079 12.1016 109.313 12.0049 109.589 12.0049C109.864 12.0049 110.099 12.1016 110.292 12.2949C110.491 12.4941 110.591 12.7314 110.591 13.0068C110.591 13.2822 110.491 13.5166 110.292 13.71C110.099 13.9033 109.864 14 109.589 14ZM103.586 12.0049C103.311 12.0049 103.076 11.9082 102.883 11.7148C102.689 11.5156 102.593 11.2783 102.593 11.0029C102.593 10.7275 102.689 10.4932 102.883 10.2998C103.076 10.1006 103.311 10.001 103.586 10.001C103.861 10.001 104.099 10.1006 104.298 10.2998C104.491 10.4932 104.588 10.7275 104.588 11.0029C104.588 11.2783 104.491 11.5156 104.298 11.7148C104.099 11.9082 103.861 12.0049 103.586 12.0049ZM103.586 10.001C103.311 10.001 103.076 9.9043 102.883 9.71094C102.689 9.51758 102.593 9.2832 102.593 9.00781C102.593 8.72656 102.689 8.48926 102.883 8.2959C103.076 8.10254 103.311 8.00586 103.586 8.00586C103.861 8.00586 104.099 8.10254 104.298 8.2959C104.491 8.49512 104.588 8.73242 104.588 9.00781C104.588 9.2832 104.491 9.51758 104.298 9.71094C104.099 9.9043 103.861 10.001 103.586 10.001ZM105.59 10.001C105.314 10.001 105.077 9.9043 104.878 9.71094C104.685 9.51758 104.588 9.2832 104.588 9.00781C104.588 8.72656 104.685 8.48926 104.878 8.2959C105.077 8.10254 105.314 8.00586 105.59 8.00586C105.865 8.00586 106.1 8.10254 106.293 8.2959C106.492 8.49512 106.592 8.73242 106.592 9.00781C106.592 9.2832 106.492 9.51758 106.293 9.71094C106.1 9.9043 105.865 10.001 105.59 10.001ZM107.585 10.001C107.31 10.001 107.075 9.9043 106.882 9.71094C106.688 9.51758 106.592 9.2832 106.592 9.00781C106.592 8.72656 106.688 8.48926 106.882 8.2959C107.075 8.10254 107.31 8.00586 107.585 8.00586C107.866 8.00586 108.104 8.10254 108.297 8.2959C108.49 8.49512 108.587 8.73242 108.587 9.00781C108.587 9.2832 108.49 9.51758 108.297 9.71094C108.098 9.9043 107.86 10.001 107.585 10.001ZM109.589 10.001C109.313 10.001 109.079 9.9043 108.886 9.71094C108.687 9.51758 108.587 9.2832 108.587 9.00781C108.587 8.72656 108.687 8.48926 108.886 8.2959C109.079 8.10254 109.313 8.00586 109.589 8.00586C109.864 8.00586 110.099 8.10254 110.292 8.2959C110.491 8.49512 110.591 8.73242 110.591 9.00781C110.591 9.2832 110.491 9.51758 110.292 9.71094C110.099 9.9043 109.864 10.001 109.589 10.001ZM103.586 8.00586C103.311 8.00586 103.076 7.90625 102.883 7.70703C102.689 7.51367 102.593 7.2793 102.593 7.00391C102.593 6.72852 102.689 6.49414 102.883 6.30078C103.076 6.10156 103.311 6.00195 103.586 6.00195C103.861 6.00195 104.099 6.10156 104.298 6.30078C104.491 6.49414 104.588 6.72852 104.588 7.00391C104.588 7.2793 104.491 7.51367 104.298 7.70703C104.099 7.90625 103.861 8.00586 103.586 8.00586ZM109.589 8.00586C109.313 8.00586 109.079 7.90625 108.886 7.70703C108.687 7.51367 108.587 7.2793 108.587 7.00391C108.587 6.72852 108.687 6.49414 108.886 6.30078C109.079 6.10156 109.313 6.00195 109.589 6.00195C109.864 6.00195 110.099 6.10156 110.292 6.30078C110.491 6.49414 110.591 6.72852 110.591 7.00391C110.591 7.2793 110.491 7.51367 110.292 7.70703C110.099 7.90625 109.864 8.00586 109.589 8.00586ZM105.59 6.00195C105.314 6.00195 105.077 5.90527 104.878 5.71191C104.685 5.51855 104.588 5.28125 104.588 5C104.588 4.72461 104.685 4.49023 104.878 4.29688C105.077 4.10352 105.314 4.00684 105.59 4.00684C105.865 4.00684 106.1 4.10352 106.293 4.29688C106.492 4.49023 106.592 4.72461 106.592 5C106.592 5.28125 106.492 5.51855 106.293 5.71191C106.1 5.90527 105.865 6.00195 105.59 6.00195ZM107.585 6.00195C107.31 6.00195 107.075 5.90527 106.882 5.71191C106.688 5.51855 106.592 5.28125 106.592 5C106.592 4.72461 106.688 4.49023 106.882 4.29688C107.075 4.10352 107.31 4.00684 107.585 4.00684C107.866 4.00684 108.104 4.10352 108.297 4.29688C108.49 4.49023 108.587 4.72461 108.587 5C108.587 5.28125 108.49 5.51855 108.297 5.71191C108.098 5.90527 107.86 6.00195 107.585 6.00195ZM113.588 14C113.312 14 113.078 13.9033 112.885 13.71C112.691 13.5166 112.595 13.2822 112.595 13.0068C112.595 12.7314 112.691 12.4941 112.885 12.2949C113.078 12.1016 113.312 12.0049 113.588 12.0049C113.863 12.0049 114.101 12.1016 114.3 12.2949C114.493 12.4941 114.59 12.7314 114.59 13.0068C114.59 13.2822 114.493 13.5166 114.3 13.71C114.101 13.9033 113.863 14 113.588 14ZM113.588 12.0049C113.312 12.0049 113.078 11.9082 112.885 11.7148C112.691 11.5156 112.595 11.2783 112.595 11.0029C112.595 10.7275 112.691 10.4932 112.885 10.2998C113.078 10.1006 113.312 10.001 113.588 10.001C113.863 10.001 114.101 10.1006 114.3 10.2998C114.493 10.4932 114.59 10.7275 114.59 11.0029C114.59 11.2783 114.493 11.5156 114.3 11.7148C114.101 11.9082 113.863 12.0049 113.588 12.0049ZM113.588 10.001C113.312 10.001 113.078 9.9043 112.885 9.71094C112.691 9.51758 112.595 9.2832 112.595 9.00781C112.595 8.72656 112.691 8.48926 112.885 8.2959C113.078 8.10254 113.312 8.00586 113.588 8.00586C113.863 8.00586 114.101 8.10254 114.3 8.2959C114.493 8.49512 114.59 8.73242 114.59 9.00781C114.59 9.2832 114.493 9.51758 114.3 9.71094C114.101 9.9043 113.863 10.001 113.588 10.001ZM113.588 8.00586C113.312 8.00586 113.078 7.90625 112.885 7.70703C112.691 7.51367 112.595 7.2793 112.595 7.00391C112.595 6.72852 112.691 6.49414 112.885 6.30078C113.078 6.10156 113.312 6.00195 113.588 6.00195C113.863 6.00195 114.101 6.10156 114.3 6.30078C114.493 6.49414 114.59 6.72852 114.59 7.00391C114.59 7.2793 114.493 7.51367 114.3 7.70703C114.101 7.90625 113.863 8.00586 113.588 8.00586ZM115.592 8.00586C115.316 8.00586 115.079 7.90625 114.88 7.70703C114.687 7.51367 114.59 7.2793 114.59 7.00391C114.59 6.72852 114.687 6.49414 114.88 6.30078C115.079 6.10156 115.316 6.00195 115.592 6.00195C115.867 6.00195 116.102 6.10156 116.295 6.30078C116.494 6.49414 116.594 6.72852 116.594 7.00391C116.594 7.2793 116.494 7.51367 116.295 7.70703C116.102 7.90625 115.867 8.00586 115.592 8.00586ZM113.588 6.00195C113.312 6.00195 113.078 5.90527 112.885 5.71191C112.691 5.51855 112.595 5.28125 112.595 5C112.595 4.72461 112.691 4.49023 112.885 4.29688C113.078 4.10352 113.312 4.00684 113.588 4.00684C113.863 4.00684 114.101 4.10352 114.3 4.29688C114.493 4.49023 114.59 4.72461 114.59 5C114.59 5.28125 114.493 5.51855 114.3 5.71191C114.101 5.90527 113.863 6.00195 113.588 6.00195ZM117.587 6.00195C117.312 6.00195 117.077 5.90527 116.884 5.71191C116.69 5.51855 116.594 5.28125 116.594 5C116.594 4.72461 116.69 4.49023 116.884 4.29688C117.077 4.10352 117.312 4.00684 117.587 4.00684C117.868 4.00684 118.105 4.10352 118.299 4.29688C118.492 4.49023 118.589 4.72461 118.589 5C118.589 5.28125 118.492 5.51855 118.299 5.71191C118.1 5.90527 117.862 6.00195 117.587 6.00195ZM119.591 6.00195C119.315 6.00195 119.081 5.90527 118.888 5.71191C118.688 5.51855 118.589 5.28125 118.589 5C118.589 4.72461 118.688 4.49023 118.888 4.29688C119.081 4.10352 119.315 4.00684 119.591 4.00684C119.866 4.00684 120.101 4.10352 120.294 4.29688C120.493 4.49023 120.593 4.72461 120.593 5C120.593 5.28125 120.493 5.51855 120.294 5.71191C120.101 5.90527 119.866 6.00195 119.591 6.00195Z" fill="white"/>
</svg>
